<svg xmlns="http://www.w3.org/2000/svg" xmlns:xlink="http://www.w3.org/1999/xlink" width="956.716" height="676.24" viewBox="0 0 956.716 676.24">
  <defs>
    <style>
      .cls-1, .cls-3 {
        fill: #ff7035;
      }

      .cls-1, .cls-16, .cls-7 {
        opacity: 0.1;
      }

      .cls-2 {
        fill: #30374e;
      }

      .cls-4 {
        fill: #444053;
      }

      .cls-5 {
        fill: #afc0e0;
      }

      .cls-6 {
        fill: #fff;
        opacity: 0.2;
      }

      .cls-8 {
        fill: #e3e8f4;
      }

      .cls-9 {
        fill: none;
        stroke: #535461;
        stroke-miterlimit: 10;
        stroke-width: 2px;
      }

      .cls-10 {
        opacity: 0.25;
      }

      .cls-11 {
        fill: url(#linear-gradient);
      }

      .cls-12 {
        fill: #434175;
      }

      .cls-13 {
        opacity: 0.05;
      }

      .cls-14 {
        fill: #565387;
      }

      .cls-15 {
        fill: #ee8e9e;
      }
    </style>
    <linearGradient id="linear-gradient" x1="0.5" y1="1" x2="0.5" gradientUnits="objectBoundingBox">
      <stop offset="0" stop-color="gray" stop-opacity="0.251"/>
      <stop offset="0.54" stop-color="gray" stop-opacity="0.122"/>
      <stop offset="1" stop-color="gray" stop-opacity="0.102"/>
    </linearGradient>
  </defs>
  <g id="framworks" transform="translate(0.001 0)">
    <path id="Caminho_231" data-name="Caminho 231" class="cls-1" d="M37.057,426.066c16.886-28.286,55.072-23.355,82.151-8.59s54.1,36.807,83.9,32.572c25.128-3.573,45.732-26.044,56.864-51.968s14.4-55.154,17.531-83.784q5.9-53.952,11.8-107.972c1.441-13.168,3.141-27.066,10.361-37.485C309.207,155.1,326.7,150.87,341.656,155s27.716,15.212,38.63,27.573c34.961,39.581,54.77,93.086,85.334,137.134,6.223,8.968,13.251,17.832,22.548,22.161,13.4,6.228,28.788,1.821,41.88-5.111,23.452-12.4,42.677-31.878,60.075-54.249,14-18,26.821-38.023,39.54-57.417,13.72-20.9,30.446-43.249,53.271-45.525,24.014-2.448,44.861,18.537,58.975,40.758,45.3,71.5,55,169.114,109.724,231.475,6.793,7.731,14.289,14.877,22.925,19.679a58.425,58.425,0,0,0,8.878,3.994c47.743,16.947,63.657,84.978,28.344,125.315-.762.859-1.541,1.718-2.328,2.577-5.243,5.678-11.182,11.046-18.268,12.739-6.592,1.563-13.4-.241-19.935-2.19-41.762-12.5-83.022-31.6-126.2-30.674-42.014.859-81.866,20.761-123.411,27.925-27.934,4.819-56.353,3.857-84.6,2.817q-141.1-5.205-282.143-12.111c-46.671-2.2-93.358-4.295-140.02-6.743C78.928,593.213,56.028,589,51.857,546.21,48.205,508.742,15.405,462.349,37.057,426.066Z" transform="translate(-29.72 -70.058)"/>
    <ellipse id="Elipse_83" data-name="Elipse 83" class="cls-2" cx="231.913" cy="32.409" rx="231.913" ry="32.409" transform="translate(423.586 611.422)"/>
    <path id="Caminho_232" data-name="Caminho 232" class="cls-3" d="M178.46,643.061s11.338-2.577,18.768,5.042c0,0-4.776,4.295-16.011-.464Z" transform="translate(-50.697 -139.044)"/>
    <path id="Caminho_233" data-name="Caminho 233" class="cls-3" d="M176.364,643s-6.717,9.517-2.457,19.284c0,0,5.807-2.792,5.643-14.989Z" transform="translate(-49.856 -139.095)"/>
    <path id="Caminho_234" data-name="Caminho 234" class="cls-3" d="M168.2,625.744s4.029-8.719,23.192,1.821c0,0-2.062,5.824-10.2,5.91S170.605,630.03,168.2,625.744Z" transform="translate(-49.25 -136.184)"/>
    <path id="Caminho_235" data-name="Caminho 235" class="cls-3" d="M165.29,625.68s-9.595-.447-9.054,21.405c0,0,6.124.859,9.947-6.339S167.978,629.829,165.29,625.68Z" transform="translate(-47.56 -136.652)"/>
    <path id="Caminho_236" data-name="Caminho 236" class="cls-3" d="M159,604.417s4.295-15.187,24.455-5.91c0,0-3.522,13.907-22.161,10.857Z" transform="translate(-47.953 -132.397)"/>
    <path id="Caminho_237" data-name="Caminho 237" class="cls-3" d="M150.29,579.238s9.088-15.668,27.908-2.955c0,0-5.317,14.491-26.018,8.2Z" transform="translate(-46.724 -128.984)"/>
    <path id="Caminho_238" data-name="Caminho 238" class="cls-3" d="M146.15,554.974s10.849-14.56,29.514-1.984c0,0-10.359,12.833-29.282,5.5Z" transform="translate(-46.14 -125.679)"/>
    <path id="Caminho_239" data-name="Caminho 239" class="cls-3" d="M142.41,531.169s10.96-15.169,28.853-2.706c0,0-12.61,13.6-28.629,6.073Z" transform="translate(-45.613 -122.248)"/>
    <path id="Caminho_240" data-name="Caminho 240" class="cls-3" d="M142.23,509.27s11.3-19.353,28.045-7.877c0,0-12.386,16.81-27.8,11.39Z" transform="translate(-45.588 -118.611)"/>
    <path id="Caminho_241" data-name="Caminho 241" class="cls-3" d="M144,484.42s12.026-19.241,28.423-6.167c0,0-14.688,16.965-28.234,9.577Z" transform="translate(-45.837 -115.218)"/>
    <path id="Caminho_242" data-name="Caminho 242" class="cls-3" d="M147.567,461.5s14.6-18.3,28.818-12.343c0,0-15.187,19.413-29.2,16.973Z" transform="translate(-46.286 -111.588)"/>
    <path id="Caminho_243" data-name="Caminho 243" class="cls-3" d="M152.459,439.508s16.784-22.333,27.8-15.994c0,0-12.292,17.257-28.844,20.057Z" transform="translate(-46.884 -107.981)"/>
    <path id="Caminho_244" data-name="Caminho 244" class="cls-3" d="M159.954,414.875s14.748-18.313,26.628-14.809c0,0-12.412,18.8-28.432,20.34Z" transform="translate(-47.833 -104.771)"/>
    <path id="Caminho_245" data-name="Caminho 245" class="cls-3" d="M167.014,391.52s16.475-17.695,24.317-15.307c0,0-11.467,19.207-24.841,19.026Z" transform="translate(-49.009 -101.438)"/>
    <path id="Caminho_246" data-name="Caminho 246" class="cls-3" d="M173.87,369.261s13.821-20.744,22.179-19.756c0,0-8,18.2-22.041,21.758Z" transform="translate(-50.05 -97.698)"/>
    <path id="Caminho_247" data-name="Caminho 247" class="cls-3" d="M180.823,340.9s12.361-16.028,19.593-16.475c0,0-9.2,20.907-19.816,21.474Z" transform="translate(-50.999 -94.165)"/>
    <path id="Caminho_248" data-name="Caminho 248" class="cls-3" d="M184.66,319.075,195.466,286.7s2.577,28.432-12.026,38.327Z" transform="translate(-51.4 -88.845)"/>
    <path id="Caminho_249" data-name="Caminho 249" class="cls-3" d="M188.062,278.852s.378-26.448-1.142-28.492c0,0,10.711,21.251,1.838,40.122Z" transform="translate(-51.89 -83.72)"/>
    <path id="Caminho_250" data-name="Caminho 250" class="cls-3" d="M154.867,605.3s-13.967-7.4-21.277,13.512c0,0,12.455,7.112,23.192-8.426Z" transform="translate(-44.369 -133.599)"/>
    <path id="Caminho_251" data-name="Caminho 251" class="cls-3" d="M145.863,579.446s-16.939-6.4-23.493,15.358c0,0,13.288,7.86,25.348-10.1Z" transform="translate(-42.787 -130.008)"/>
    <path id="Caminho_252" data-name="Caminho 252" class="cls-3" d="M140.514,556.813s-12.7-12.979-29.514,2c0,0,11.974,11.33,29.746,1.538Z" transform="translate(-41.183 -126.204)"/>
    <path id="Caminho_253" data-name="Caminho 253" class="cls-3" d="M137.186,531.524s-12.885-13.58-28.956,1.168c0,0,14.31,11.794,29.2,2.19Z" transform="translate(-40.793 -122.569)"/>
    <path id="Caminho_254" data-name="Caminho 254" class="cls-3" d="M137.781,509.646s-9.758-20.16-27.341-10.024c0,0,11.046,17.72,26.834,13.52Z" transform="translate(-41.104 -118.472)"/>
    <path id="Caminho_255" data-name="Caminho 255" class="cls-3" d="M140.649,483.9s-9.732-20.529-27.539-9.509c0,0,12.592,18.562,26.92,12.824Z" transform="translate(-41.481 -114.858)"/>
    <path id="Caminho_256" data-name="Caminho 256" class="cls-3" d="M146.379,459.769s-4.845-22.892-20.229-23.939c0,0,4.879,24.163,18.476,28.243Z" transform="translate(-43.32 -109.877)"/>
    <path id="Caminho_257" data-name="Caminho 257" class="cls-3" d="M150.487,437.762s-3.152-27.753-15.857-27.882c0,0,1.847,21.1,14.7,31.911Z" transform="translate(-44.516 -106.218)"/>
    <path id="Caminho_258" data-name="Caminho 258" class="cls-3" d="M158.833,412.26s-5.334-22.9-17.583-24.91c0,0,3.006,22.333,16.776,30.682Z" transform="translate(-45.449 -103.04)"/>
    <path id="Caminho_259" data-name="Caminho 259" class="cls-3" d="M167.173,389.691s-1.718-24.111-9.363-27.161c0,0-3.1,22.144,7.43,30.39Z" transform="translate(-47.725 -99.54)"/>
    <path id="Caminho_260" data-name="Caminho 260" class="cls-3" d="M172.766,367.6s-2.706-24.781-10.574-27.762c0,0-1.288,19.834,9.535,29.463Z" transform="translate(-48.396 -96.34)"/>
    <path id="Caminho_261" data-name="Caminho 261" class="cls-3" d="M180.934,341.785s-1.409-20.194-7.172-24.575c0,0-3.934,22.5,4.6,28.827Z" transform="translate(-49.907 -93.148)"/>
    <path id="Caminho_262" data-name="Caminho 262" class="cls-3" d="M182.588,317.816l-7.559-33.276s-5.351,28.037,8.22,39.324Z" transform="translate(-50.067 -88.541)"/>
    <path id="Caminho_263" data-name="Caminho 263" class="cls-3" d="M180.163,280.3s-15.144-21.715-15.023-24.24c0,0,3.041,23.6,20.967,34.264Z" transform="translate(-48.819 -84.524)"/>
    <path id="Caminho_264" data-name="Caminho 264" class="cls-3" d="M180.555,270.89s-15-31.258-20.985-33.5c0,0,18.975,8.1,22,32.469Z" transform="translate(-48.033 -81.891)"/>
    <path id="Caminho_265" data-name="Caminho 265" class="cls-4" d="M180.4,338.944l-.859-.215c8.461-36.077,9.655-58.822,3.35-64.045l.584-.7C190.122,279.512,189.075,301.982,180.4,338.944Z" transform="translate(-50.85 -87.051)"/>
    <path id="Caminho_266" data-name="Caminho 266" class="cls-4" d="M152.041,433.916l-1.331-.369c.936-3.316,1.95-6.691,3.032-10.016,9.449-28.964,17.3-55.833,22.118-76.4l1.091-.644c-4.827,20.615-12.464,48.472-21.9,77.462C153.983,427.267,152.969,430.617,152.041,433.916Z" transform="translate(-46.784 -97.278)"/>
    <path id="Caminho_267" data-name="Caminho 267" class="cls-4" d="M191.031,640.527c-.189-.18-19.086-18.786-33.6-51.744a199.6,199.6,0,0,1-15.985-60.789c-2.577-26.224.945-55.945,8.59-83.234l1.1,1.134c-17.179,61.253-5.317,111.958,7.928,142.073,14.371,32.641,33.053,51.066,33.242,51.246Z" transform="translate(-45.359 -111.137)"/>
    <path id="Caminho_268" data-name="Caminho 268" class="cls-3" d="M223.53,558.418s6.872-1.572,11.356,3.049c0,0-2.895,2.577-9.681-.284Z" transform="translate(-57.053 -127.13)"/>
    <path id="Caminho_269" data-name="Caminho 269" class="cls-3" d="M222.277,558.39s-4.054,5.755-1.477,11.656c0,0,3.5-1.718,3.436-9.062Z" transform="translate(-56.547 -127.162)"/>
    <path id="Caminho_270" data-name="Caminho 270" class="cls-3" d="M217.34,547.945s2.431-5.265,14,1.108c0,0-1.245,3.513-6.167,3.565S218.809,550.539,217.34,547.945Z" transform="translate(-56.181 -125.401)"/>
    <path id="Caminho_271" data-name="Caminho 271" class="cls-3" d="M215.578,547.91s-5.807-.266-5.48,12.936c0,0,3.7.515,6.013-3.831S217.2,550.418,215.578,547.91Z" transform="translate(-55.157 -125.684)"/>
    <path id="Caminho_272" data-name="Caminho 272" class="cls-3" d="M211.75,535.054s2.637-9.182,14.8-3.59c0,0-2.122,8.409-13.391,6.563Z" transform="translate(-55.392 -123.11)"/>
    <path id="Caminho_273" data-name="Caminho 273" class="cls-3" d="M206.51,519.835s5.489-9.449,16.87-1.787c0,0-3.221,8.761-15.728,4.956Z" transform="translate(-54.653 -121.05)"/>
    <path id="Caminho_274" data-name="Caminho 274" class="cls-3" d="M204,505.165s6.563-8.8,17.841-1.2c0,0-6.253,7.731-17.695,3.324Z" transform="translate(-54.299 -119.05)"/>
    <path id="Caminho_275" data-name="Caminho 275" class="cls-3" d="M201.74,490.774s6.631-9.174,17.446-1.632c0,0-7.619,8.22-17.308,3.668Z" transform="translate(-53.98 -116.976)"/>
    <path id="Caminho_276" data-name="Caminho 276" class="cls-3" d="M201.64,477.528s6.872-11.691,16.947-4.759c0,0-7.49,10.162-16.81,6.872Z" transform="translate(-53.966 -114.777)"/>
    <path id="Caminho_277" data-name="Caminho 277" class="cls-3" d="M202.68,462.513s7.293-11.639,17.179-3.762c0,0-8.882,10.256-17.076,5.789Z" transform="translate(-54.113 -112.724)"/>
    <path id="Caminho_278" data-name="Caminho 278" class="cls-3" d="M204.865,448.657s8.822-11.064,17.42-7.456c0,0-9.182,11.734-17.635,10.256Z" transform="translate(-54.391 -110.533)"/>
    <path id="Caminho_279" data-name="Caminho 279" class="cls-3" d="M207.817,435.36s10.144-13.494,16.81-9.672c0,0-7.43,10.436-17.437,12.129Z" transform="translate(-54.749 -108.351)"/>
    <path id="Caminho_280" data-name="Caminho 280" class="cls-3" d="M212.355,420.486s8.916-11.072,16.114-8.95c0,0-7.5,11.364-17.179,12.292Z" transform="translate(-55.327 -106.413)"/>
    <path id="Caminho_281" data-name="Caminho 281" class="cls-3" d="M216.618,406.349s9.955-10.694,14.7-9.251c0,0-6.923,11.6-15.015,11.5Z" transform="translate(-56.034 -104.396)"/>
    <path id="Caminho_282" data-name="Caminho 282" class="cls-3" d="M220.76,392.894s8.358-12.541,13.408-11.957c0,0-4.827,11-13.323,13.159Z" transform="translate(-56.663 -102.133)"/>
    <path id="Caminho_283" data-name="Caminho 283" class="cls-3" d="M224.977,375.744s7.473-9.689,11.845-9.964c0,0-5.566,12.644-11.983,12.962Z" transform="translate(-57.238 -99.998)"/>
    <path id="Caminho_284" data-name="Caminho 284" class="cls-3" d="M227.283,362.55,233.8,343s1.546,17.179-7.293,23.192Z" transform="translate(-57.474 -96.785)"/>
    <path id="Caminho_285" data-name="Caminho 285" class="cls-3" d="M229.346,338.232s.223-15.985-.7-17.222c0,0,6.477,12.842,1.108,24.257Z" transform="translate(-57.776 -93.684)"/>
    <path id="Caminho_286" data-name="Caminho 286" class="cls-3" d="M209.265,535.593s-8.435-4.484-12.885,8.16c0,0,7.533,4.295,14.027-5.085Z" transform="translate(-53.224 -123.838)"/>
    <path id="Caminho_287" data-name="Caminho 287" class="cls-3" d="M203.837,519.913s-10.247-3.865-14.207,9.285c0,0,8.031,4.75,15.324-6.1Z" transform="translate(-52.273 -121.661)"/>
    <path id="Caminho_288" data-name="Caminho 288" class="cls-3" d="M200.591,506.272s-7.671-7.842-17.841,1.2c0,0,7.241,6.872,17.987.928Z" transform="translate(-51.302 -119.367)"/>
    <path id="Caminho_289" data-name="Caminho 289" class="cls-3" d="M198.586,490.985s-7.791-8.2-17.506.713c0,0,8.65,7.121,17.643,1.323Z" transform="translate(-51.067 -117.17)"/>
    <path id="Caminho_290" data-name="Caminho 290" class="cls-3" d="M198.945,477.722s-5.9-12.189-16.535-6.064c0,0,6.683,10.711,16.226,8.177Z" transform="translate(-51.254 -114.687)"/>
    <path id="Caminho_291" data-name="Caminho 291" class="cls-3" d="M200.673,462.184s-5.884-12.412-16.673-5.746c0,0,7.61,11.227,16.277,7.731Z" transform="translate(-51.479 -112.506)"/>
    <path id="Caminho_292" data-name="Caminho 292" class="cls-3" d="M204.142,447.624s-2.929-13.847-12.232-14.474c0,0,2.946,14.6,11.167,17.068Z" transform="translate(-52.594 -109.499)"/>
    <path id="Caminho_293" data-name="Caminho 293" class="cls-3" d="M206.62,434.3s-1.89-16.776-9.62-16.862c0,0,1.117,12.764,8.882,19.3Z" transform="translate(-53.312 -107.284)"/>
    <path id="Caminho_294" data-name="Caminho 294" class="cls-3" d="M211.665,418.886s-3.221-13.847-10.625-15.066c0,0,1.821,13.494,10.144,18.545Z" transform="translate(-53.882 -105.363)"/>
    <path id="Caminho_295" data-name="Caminho 295" class="cls-3" d="M216.709,405.243s-1.057-14.6-5.652-16.423c0,0-1.881,13.391,4.484,18.373Z" transform="translate(-55.258 -103.247)"/>
    <path id="Caminho_296" data-name="Caminho 296" class="cls-3" d="M220.1,391.884s-1.632-14.98-6.391-16.784c0,0-.782,12.026,5.764,17.815Z" transform="translate(-55.664 -101.312)"/>
    <path id="Caminho_297" data-name="Caminho 297" class="cls-3" d="M225.035,376.28s-.859-12.206-4.295-14.86c0,0-2.379,13.606,2.774,17.428Z" transform="translate(-56.583 -99.383)"/>
    <path id="Caminho_298" data-name="Caminho 298" class="cls-3" d="M226.056,361.787l-4.57-20.117s-3.238,16.956,4.965,23.776Z" transform="translate(-56.676 -96.598)"/>
    <path id="Caminho_299" data-name="Caminho 299" class="cls-3" d="M224.569,339.114S215.421,326,215.49,324.46c0,0,1.83,14.267,12.67,20.71Z" transform="translate(-55.92 -94.171)"/>
    <path id="Caminho_300" data-name="Caminho 300" class="cls-3" d="M224.777,333.419s-9.071-18.9-12.687-20.229c0,0,11.476,4.9,13.3,19.636Z" transform="translate(-55.44 -92.581)"/>
    <path id="Caminho_301" data-name="Caminho 301" class="cls-4" d="M224.7,374.552l-.541-.129c5.154-21.809,5.841-35.561,2.027-38.714l.352-.429C230.585,338.63,229.949,352.219,224.7,374.552Z" transform="translate(-57.142 -95.697)"/>
    <path id="Caminho_302" data-name="Caminho 302" class="cls-4" d="M207.567,431.987l-.807-.232c.567-2,1.185-4.037,1.838-6.013,5.695-17.514,10.454-33.757,13.366-46.187l.661-.4c-2.92,12.455-7.533,29.308-13.237,46.84C208.736,427.984,208.126,429.985,207.567,431.987Z" transform="translate(-54.688 -101.885)"/>
    <path id="Caminho_303" data-name="Caminho 303" class="cls-4" d="M231.134,556.887c-.112-.112-11.536-11.356-20.315-31.284a120.874,120.874,0,0,1-9.663-36.747c-1.572-15.857.576-33.826,5.205-50.327l.661.687c-10.385,37.03-3.213,67.687,4.793,85.9,8.693,19.756,19.98,30.863,20.1,30.974Z" transform="translate(-53.826 -110.258)"/>
    <path id="Caminho_304" data-name="Caminho 304" class="cls-5" d="M251.232,605.886a32.85,32.85,0,0,0-6.442,1.838c-46.333,18.5-45.56,139.617-45.56,139.617H185.59s-4.295-51.976-23.012-126.131c-16.862-66.716,52.294-126.509,66.338-137.847,1.581-1.263,2.457-1.933,2.457-1.933C301.027,507.027,251.232,605.886,251.232,605.886Z" transform="translate(-48.086 -116.308)"/>
    <path id="Caminho_305" data-name="Caminho 305" class="cls-6" d="M236.448,483.537c-1.606-.739-3.264-1.443-5.025-2.087,0,0-.859.67-2.457,1.933-14.044,11.338-83.2,71.131-66.338,137.847C181.345,695.385,185.6,747.344,185.6,747.344h7.671s-4.252-51.976-23.012-126.131C153.463,554.806,221.948,495.236,236.448,483.537Z" transform="translate(-48.093 -116.311)"/>
    <path id="Caminho_306" data-name="Caminho 306" class="cls-5" d="M516.371,621.227c-18.76,74.155-22.986,126.114-22.986,126.114H479.719s.859-126.578-48.729-140.708a27.086,27.086,0,0,0-3.273-.765S377.9,507.01,447.577,481.43c0,0,.7.524,1.976,1.546C462.463,493.31,533.422,553.738,516.371,621.227Z" transform="translate(-92.052 -116.308)"/>
    <path id="Caminho_307" data-name="Caminho 307" class="cls-7" d="M262.556,605.889a32.85,32.85,0,0,0-6.442,1.838A841.116,841.116,0,0,1,240.24,483.383c1.58-1.263,2.457-1.933,2.457-1.933C312.35,507.03,262.556,605.889,262.556,605.889Z" transform="translate(-63.834 -116.311)"/>
    <path id="Caminho_308" data-name="Caminho 308" class="cls-7" d="M449.582,483A773.921,773.921,0,0,1,431.02,606.693a27.094,27.094,0,0,0-3.273-.765s-49.82-98.859,19.859-124.439C447.581,481.455,448.285,481.979,449.582,483Z" transform="translate(-91.419 -116.317)"/>
    <path id="Caminho_309" data-name="Caminho 309" class="cls-8" d="M400.321,564.68q-7.215,28.466-16.913,58.41s-30.682,31.962-104.794,0c0,0-7.4-20.873-15.547-56.357-17.927-78.02-39.427-226.7,6.382-379.415A568.421,568.421,0,0,1,327.154,56.36s39.135,44.933,67.859,130.932S442.016,400.377,400.321,564.68Z" transform="translate(-64.926 -56.36)"/>
    <circle id="Elipse_84" data-name="Elipse 84" class="cls-5" cx="61.528" cy="61.528" r="61.528" transform="translate(206.494 190.665)"/>
    <path id="Caminho_310" data-name="Caminho 310" class="cls-3" d="M384.853,342.837a43.636,43.636,0,0,1-71.294,33.749,44.09,44.09,0,0,1-8.177-8.873,42.949,42.949,0,0,1-2.817-4.63,43.55,43.55,0,0,1-4.973-20.246V341.8a43.687,43.687,0,0,1,31.782-40.99,45.124,45.124,0,0,1,10.514-1.6h1.306A43.636,43.636,0,0,1,384.853,342.837Z" transform="translate(-73.428 -90.61)"/>
    <path id="Caminho_311" data-name="Caminho 311" class="cls-5" d="M399.5,187.293c-69.808,33.422-125.6,0-125.6,0A568.421,568.421,0,0,1,331.648,56.36S370.783,101.293,399.5,187.293Z" transform="translate(-69.805 -56.36)"/>
    <path id="Caminho_312" data-name="Caminho 312" class="cls-5" d="M403.769,648.14q-4.9,19.275-10.909,39.212-2.852,9.509-6.013,19.172s-30.682,31.962-104.794,0c0,0-2.405-6.777-6.013-19.172-2.7-9.363-6.056-21.912-9.56-37.185,0,0,27.59,11.776,66.75,11.776a183.911,183.911,0,0,0,70.539-13.8Z" transform="translate(-68.663 -139.82)"/>
    <path id="Caminho_313" data-name="Caminho 313" class="cls-8" d="M394.43,693.79q-2.852,9.509-6.013,19.172s-30.682,31.962-104.794,0c0,0-2.405-6.777-6.013-19.172C277.6,693.79,353.139,715.522,394.43,693.79Z" transform="translate(-70.356 -146.258)"/>
    <path id="Caminho_314" data-name="Caminho 314" class="cls-6" d="M329.4,300.738l-.094.069-31.7,40.921v1.039a43.549,43.549,0,0,0,4.973,20.246l37.348-63.873Z" transform="translate(-73.147 -90.6)"/>
    <path id="Caminho_315" data-name="Caminho 315" class="cls-6" d="M340.8,343.475l-25.958,38.868a44.09,44.09,0,0,1-8.177-8.873l30.923-33.191Z" transform="translate(-74.564 -96.402)"/>
    <path id="Caminho_316" data-name="Caminho 316" class="cls-6" d="M295.185,623.074s-7.4-20.881-15.547-56.357c-17.927-78.029-39.427-226.707,6.382-379.423A570.513,570.513,0,0,1,336.57,68.679c-5.815-8.151-9.449-12.309-9.449-12.309A568.363,568.363,0,0,0,269.4,187.294C223.59,340.01,245.09,488.689,263.017,566.717c8.143,35.475,15.547,56.357,15.547,56.357,29.282,12.618,51.779,15.264,68.288,13.855C332.748,635.856,315.62,631.879,295.185,623.074Z" transform="translate(-64.45 -56.361)"/>
    <path id="Caminho_317" data-name="Caminho 317" class="cls-9" d="M966.7,755.325s40.148-49.958,37.485-99.992a97.106,97.106,0,0,1,15.925-59.32,163.366,163.366,0,0,1,18.9-23.192" transform="translate(-184.864 -129.197)"/>
    <path id="Caminho_318" data-name="Caminho 318" class="cls-3" d="M1048.948,534.752c-2.869,6.966,1.426,32.366,1.426,32.366s20.933-15.015,23.8-21.981a13.641,13.641,0,1,0-25.228-10.385Z" transform="translate(-196.324 -122.637)"/>
    <path id="Caminho_319" data-name="Caminho 319" class="cls-3" d="M1006.292,568.429c1.383,7.4,18.794,26.387,18.794,26.387s9.449-23.974,8.031-31.387a13.644,13.644,0,1,0-26.826,5Z" transform="translate(-190.415 -126.301)"/>
    <path id="Caminho_320" data-name="Caminho 320" class="cls-3" d="M975.246,644.594c4.93,5.695,29.549,13.3,29.549,13.3s-3.986-25.451-8.916-31.155A13.639,13.639,0,1,0,975.26,644.6Z" transform="translate(-185.602 -136.137)"/>
    <path id="Caminho_321" data-name="Caminho 321" class="cls-3" d="M965.517,708.531c3.891,6.451,26.869,18.1,26.869,18.1s.378-25.769-3.513-32.211a13.644,13.644,0,1,0-23.355,14.113Z" transform="translate(-184.42 -145.417)"/>
    <path id="Caminho_322" data-name="Caminho 322" class="cls-3" d="M1053.089,611.749c-6.992,2.792-32.349-1.761-32.349-1.761s15.221-20.778,22.222-23.579a13.644,13.644,0,1,1,10.127,25.34Z" transform="translate(-192.485 -130.976)"/>
    <path id="Caminho_323" data-name="Caminho 323" class="cls-3" d="M1040.839,685.865c-7.507.576-30.339-11.356-30.339-11.356s20.735-15.281,28.251-15.857a13.648,13.648,0,1,1,2.088,27.215Z" transform="translate(-191.041 -141.297)"/>
    <path id="Caminho_324" data-name="Caminho 324" class="cls-3" d="M1018.465,756.428c-7.31,1.838-31.825-6.064-31.825-6.064s17.858-18.562,25.168-20.392a13.64,13.64,0,1,1,6.657,26.456Z" transform="translate(-187.676 -151.302)"/>
    <path id="Caminho_325" data-name="Caminho 325" class="cls-10" d="M1048.948,534.752c-2.869,6.966,1.426,32.366,1.426,32.366s20.933-15.015,23.8-21.981a13.641,13.641,0,1,0-25.228-10.385Z" transform="translate(-196.324 -122.637)"/>
    <path id="Caminho_326" data-name="Caminho 326" class="cls-10" d="M1006.292,568.429c1.383,7.4,18.794,26.387,18.794,26.387s9.449-23.974,8.031-31.387a13.644,13.644,0,1,0-26.826,5Z" transform="translate(-190.415 -126.301)"/>
    <path id="Caminho_327" data-name="Caminho 327" class="cls-10" d="M975.246,644.594c4.93,5.695,29.549,13.3,29.549,13.3s-3.986-25.451-8.916-31.155A13.639,13.639,0,1,0,975.26,644.6Z" transform="translate(-185.602 -136.137)"/>
    <path id="Caminho_328" data-name="Caminho 328" class="cls-10" d="M965.517,708.531c3.891,6.451,26.869,18.1,26.869,18.1s.378-25.769-3.513-32.211a13.644,13.644,0,1,0-23.355,14.113Z" transform="translate(-184.42 -145.417)"/>
    <path id="Caminho_329" data-name="Caminho 329" class="cls-10" d="M1053.089,611.749c-6.992,2.792-32.349-1.761-32.349-1.761s15.221-20.778,22.222-23.579a13.644,13.644,0,1,1,10.127,25.34Z" transform="translate(-192.485 -130.976)"/>
    <path id="Caminho_330" data-name="Caminho 330" class="cls-10" d="M1040.839,685.865c-7.507.576-30.339-11.356-30.339-11.356s20.735-15.281,28.251-15.857a13.648,13.648,0,1,1,2.088,27.215Z" transform="translate(-191.041 -141.297)"/>
    <path id="Caminho_331" data-name="Caminho 331" class="cls-10" d="M1018.465,756.428c-7.31,1.838-31.825-6.064-31.825-6.064s17.858-18.562,25.168-20.392a13.64,13.64,0,1,1,6.657,26.456Z" transform="translate(-187.676 -151.302)"/>
    <path id="Caminho_332" data-name="Caminho 332" class="cls-9" d="M967.12,760.277s56.95-29.411,74.79-76.225a97.064,97.064,0,0,1,38.6-47.784,163.129,163.129,0,0,1,26.628-13.537" transform="translate(-184.923 -136.236)"/>
    <path id="Caminho_333" data-name="Caminho 333" class="cls-3" d="M1141.481,587.834c-5.446,5.214-11.811,30.176-11.811,30.176s25.219-5.248,30.665-10.454a13.655,13.655,0,0,0-18.854-19.756Z" transform="translate(-207.848 -130.777)"/>
    <path id="Caminho_334" data-name="Caminho 334" class="cls-3" d="M1090.121,601.348c-1.718,7.336,6.485,31.782,6.485,31.782s18.287-18.1,20.057-25.477a13.64,13.64,0,1,0-26.542-6.3Z" transform="translate(-202.237 -131.741)"/>
    <path id="Caminho_335" data-name="Caminho 335" class="cls-3" d="M1030.842,658.4c2.2,7.207,21.629,24.128,21.629,24.128s6.674-24.91,4.475-32.082a13.645,13.645,0,0,0-26.1,7.954Z" transform="translate(-193.826 -138.781)"/>
    <path id="Caminho_336" data-name="Caminho 336" class="cls-3" d="M996.042,712.908c.945,7.482,17.231,27.435,17.231,27.435s10.789-23.39,9.835-30.871a13.642,13.642,0,1,0-27.066,3.436Z" transform="translate(-188.987 -146.788)"/>
    <path id="Caminho_337" data-name="Caminho 337" class="cls-3" d="M1114.791,660.823c-7.533-.275-28.861-14.714-28.861-14.714s22.333-12.824,29.866-12.549a13.641,13.641,0,1,1-1.005,27.264Z" transform="translate(-201.679 -137.763)"/>
    <path id="Caminho_338" data-name="Caminho 338" class="cls-3" d="M1074.131,723.77c-7.1-2.517-23.141-22.677-23.141-22.677s25.159-5.557,32.254-3.041a13.642,13.642,0,0,1-9.114,25.717Z" transform="translate(-196.752 -146.767)"/>
    <path id="Caminho_339" data-name="Caminho 339" class="cls-3" d="M1024.748,779.157c-7.422-1.28-26.628-18.442-26.628-18.442s23.854-9.724,31.275-8.444a13.641,13.641,0,1,1-4.638,26.886Z" transform="translate(-189.295 -154.489)"/>
    <path id="Caminho_340" data-name="Caminho 340" class="cls-11" d="M1002.439,692.562,958.3,628.543s-.859-15.848-3.711-19.55-.618-11.94-.618-11.94,3.092-4.527.412-4.939-.412-10.505-.412-10.505l-.206-16.054s2.474-15.461.412-19.138a6.073,6.073,0,0,1,.206-6.588s2.474-8.856,0-11.115-1.855-16.063-1.237-26.972-4.338-17.085-4.338-18.734-16.32-17.7-16.32-19.138-10.308-7.413-16.5-9.062-9.285-2.878-9.079-3.7-9.7-4.114-9.7-4.114-8.667-.618-11.974-4.948-13.391-5.566-13.683-5.609c-.06-.283-.129-.576-.189-.859s-.129-.618-.189-.928c.782-1.314,1.5-2.654,2.156-4.037.2-.421.387-.859.567-1.254,3.616-.163,7.327-.936,10.162-3.152a13.838,13.838,0,0,0,4.939-9.87,21.637,21.637,0,0,0-2.414-10.969c-1.8-3.711-4.458-7.55-3.548-11.57.4-1.718,1.443-3.264,1.976-4.965,1.005-3.221.077-6.76-1.486-9.749s-3.736-5.618-5.472-8.512a33.242,33.242,0,0,1-4.355-12.026c-.352-2.233-.49-4.587-1.615-6.554a12.2,12.2,0,0,0-3.616-3.651,36.136,36.136,0,0,0-22.178-6.726c-5.618.2-11.218,1.718-16.793,1.022a60.431,60.431,0,0,1-9.809-2.577c-6.923-2.044-14.9-2.886-20.933,1.074s-8.427,11.751-12.507,17.841c-3.608,5.394-8.9,9.913-11.648,15.616a1.227,1.227,0,0,1,.086-.326,18.683,18.683,0,0,0-1.538,4.157c-1.048,4.484-.172,9.174.919,13.649.558,2.311,1.331,4.819,3.333,6.1s4.836,1,7.207,1.417c-.086.387-.189.782-.275,1.177a47.157,47.157,0,0,0,32.718,54.974v1.254a31.2,31.2,0,0,1-.215,3.539h0s-20.744-4.295-26.319-1.374S774,464.308,772.355,465.94s-5.772.412-9.449,10.093-4.123,19.55-8.873,24.051S746.818,507.7,746.612,511s.618,4.114-1.245,5.154-4.535,5.351-3.711,7c0,0,1.031,4.114-2.268,6.167s-2.895,6.176-2.895,6.176-1.237,4.535-4.123,5.557-4.75,7.825-4.75,7.825l-9.388,10.78-18.545-20.529a7.817,7.817,0,0,0-11.038-.567l-9.105,8.212a17.988,17.988,0,0,0-9.114,5.429,23.491,23.491,0,0,0-4.716,7.026l-4.991,4.484a12.67,12.67,0,0,0-1.28,13.984l11.88,13.134.077.112a20.982,20.982,0,0,0-11.493,4.681c-17.738,15.642-17.952,30.064-15.264,36.635s25.168,31.911,25.168,31.911,13.065,16.982,31.928,26.018h0l-.146.146c-.369.4-.739.859-1.1,1.288l-.309.4-.284.4-.335.5c-.094.129-.18.266-.266.4s-.241.387-.352.593l-.232.4c-.137.258-.283.524-.421.8l-.137.266c-.172.361-.344.73-.507,1.117-.06.137-.112.284-.172.421-.1.266-.215.541-.318.859s-.129.352-.189.533-.18.533-.266.807-.12.387-.172.576-.172.6-.249.911-.094.361-.146.558c-.112.472-.223.962-.318,1.477a3.631,3.631,0,0,1-.1.584q-.1.515-.18,1.057c-.043.249-.069.5-.1.747s-.086.679-.129,1.022l-.077.79c0,.378-.069.773-.094,1.168a4.074,4.074,0,0,1-.043.722c0,.653-.069,1.306-.077,1.993-.412,24.051,1,27.581,1,27.581s2.912,7.671,10.952,8.22a14,14,0,0,0,3.53-.189c10.729-1.855,35.9-6.176,44.769-4.527,5.334.988,15.212-.472,22.247-1.8l1.847-.352,1.288,4.089,4.08-1.117,3.436,2,2.19,1.254c4.072,13.812,20.615,9.105,20.615,9.105l3.883,2.25,39.822,1.031s8.59,5.154,14.1,6.769a13.081,13.081,0,0,0,2,.438,90.373,90.373,0,0,0,11.1.206c3.049-.077,5.411-.206,5.411-.206s-.4-10.814-.988-22.917c15.221-.636,28.715-1.589,36.884-3.024,21.268-3.736,30.141-23.072,33.405-33.405a97.21,97.21,0,0,1,2.087,12.824,91.7,91.7,0,0,0,3.307,11.115,37.562,37.562,0,0,0,4.535,8.229c15.685-5.351,6.193-13.374,2.886-16.879s2.276-6.382,2.276-6.382,4.295-2.878,3.917-5.557-.618-5.557,13.408-5.351S1002.439,692.562,1002.439,692.562ZM784.553,561.14c.18,1.177,2.139,13.864,3.908,17.179.369.7.515,3.2.464,6.777-8.315-.661-16.973-1.014-16.973-1.014a1.992,1.992,0,0,1,.447,1.057l-1.306-.292-1.9-.464,15.315-23.3Zm-30.339,48.274L768.6,611.7l1.211.189a47.356,47.356,0,0,0-.747,6.794c0,.215.326.472.79.773a18.534,18.534,0,0,0-.284,3.436c.232,1.142,6.958,3.6,14.671,5.643-.1.412-.206.807-.309,1.177h0c-6.812-3.582-17.549-5.257-18.786-7.92s-37.795-15.461-37.795-15.461-1.331-.7-3.633-1.821l9.62,1.821,2.646-.266a144.232,144.232,0,0,0,18.227,3.333Z" transform="translate(-139.267 -96.129)"/>
    <path id="Caminho_341" data-name="Caminho 341" class="cls-12" d="M964.029,748.455s-5.721,34.556-34.762,39.667-125.976,4.089-125.976,4.089-55.421-7.971-75.46-54.8-32.924-65.445-15.745-66.261,109.819,31.292,115.1,31.7S969.14,631.678,964.029,748.455Z" transform="translate(-147.826 -143.062)"/>
    <path id="Caminho_342" data-name="Caminho 342" class="cls-13" d="M964.029,748.455s-5.721,34.556-34.762,39.667-125.976,4.089-125.976,4.089-55.421-7.971-75.46-54.8-32.924-65.445-15.745-66.261,109.819,31.292,115.1,31.7S969.14,631.678,964.029,748.455Z" transform="translate(-147.826 -143.062)"/>
    <path id="Caminho_343" data-name="Caminho 343" class="cls-14" d="M703.895,797.3s2.895,7.628,10.857,8.169a14.112,14.112,0,0,0,3.5-.189c10.634-1.838,35.587-6.133,44.374-4.5,5.291.988,15.075-.472,22.041-1.787,4.638-.859,8.023-1.718,8.023-1.718s-8.177-27.195-9.208-28.011-36.807-22.29-36.807-22.29l-28.346-2.036h-.086a14.9,14.9,0,0,0-9.6,5.643c-3,3.616-5.566,9.56-5.738,19.3C702.5,793.824,703.895,797.3,703.895,797.3Z" transform="translate(-139.594 -153.472)"/>
    <path id="Caminho_344" data-name="Caminho 344" class="cls-13" d="M703.9,797.307s2.895,7.628,10.857,8.169a116.412,116.412,0,0,1-7.731-11.235l.146-19.834a34.864,34.864,0,0,1,11.167-29.437h-.086s-14.929,1.014-15.341,24.91S703.9,797.307,703.9,797.307Z" transform="translate(-138.442 -153.476)"/>
    <path id="Caminho_345" data-name="Caminho 345" class="cls-7" d="M844.489,745.246l26.379-20.615,41.514-40.9s-4.484-.215-11.244-.507c-1.718,1.074-6.4,4.449-6.571,8.59-.206,5-11.227.344-16.947,3.2s-33.74,38.722-38.654,38.49-8.787-2.491-10.84.988c0,.077-.094.146-.146.223Z" transform="translate(-159.915 -144.767)"/>
    <path id="Caminho_346" data-name="Caminho 346" class="cls-7" d="M709.6,750.6c.936.455,1.881.859,2.852,1.306,20.048,8.59,44.787,26.628,46.633,29.858,1.117,1.993,15.461,10.7,26.534,17.231,4.638-.859,8.023-1.718,8.023-1.718s-8.177-27.195-9.208-28.011-36.807-22.29-36.807-22.29l-28.346-2.036h-.086A14.964,14.964,0,0,0,709.6,750.6Z" transform="translate(-140.601 -153.472)"/>
    <path id="Caminho_347" data-name="Caminho 347" class="cls-12" d="M644.633,676.516c2.654,6.545,24.91,31.7,24.91,31.7s14.1,18.4,34.153,26.989,44.787,26.628,46.625,29.858c1.185,2.1,17.179,11.725,28.415,18.339l2.517,1.469,5.583,3.238,2.955,1.718s6.872-5.5,13.666-11.029,13.426-10.952,13.537-11.261c.2-.61,2.852-7.568,2.242-7.971-.318-.215-1.718-3.049-4.295-6.331a29.049,29.049,0,0,0-10.419-8.59c-9.449-4.295-13.494-14.07-13.494-14.07s-.859-.653-2.259-1.512c-2.422-1.529-6.313-3.728-9.191-4.1-4.51-.567-12.885-9.766-12.885-9.766s-5.729-3.685-7.98-8.384c-2.147-4.484-33.86-26.267-36.8-28.277L798.8,727.916l18.4,11.828,26.379-20.615,41.523-40.9s-5.583-.275-13.743-.618c-20.177-.859-56.013-2.242-60.54-1.22a34.5,34.5,0,0,1-11.253.73s-10.2.464-16.956-3.1-17.394-5.231-18.622-7.868-37.425-15.333-37.425-15.333-49.279-26.173-66.871-10.625S641.971,669.979,644.633,676.516Z" transform="translate(-132.693 -138.003)"/>
    <path id="Caminho_348" data-name="Caminho 348" class="cls-15" d="M829.82,498.588l6.339,21.062,8.177,47.441,30.064,2.044,8.7-14.431,8.719-14.4s5.411-19.172,9.3-37.717c3.436-16.406,5.686-32.332,1.941-34.058-3.316-1.538-5.5-7.061-6.872-13-.18-.73-.344-1.477-.5-2.225a115.62,115.62,0,0,1-1.993-15.247s-62.988-3.264-54.192,22.7a41.386,41.386,0,0,1,2.371,13.812,32.854,32.854,0,0,1-.215,3.513A29.463,29.463,0,0,1,829.82,498.588Z" transform="translate(-160.035 -110.172)"/>
    <path id="Caminho_349" data-name="Caminho 349" class="cls-8" d="M814.58,501.693l2.25,35.785,5.111,30.468,5.729,14.113,5.111,77.2s49.313,5.7,61.3-.1a5.273,5.273,0,0,0,2.173-1.718c14.482-21.844,9.732-85.2,9.732-85.2l5.523-40.913-3.685-21.234-8.89-.945-6.872-.73s-1.546,1.907-3.779,4.853c-6.064,8.006-17.179,23.75-16.466,30.322,1.014,9-1.228,18.2-4.707,19.636s-6.339,3.883-6.949,1.434-1.228-3.067-.618-6.545-2.663-14.113-2.663-14.113-5.515-12.472-5.154-17.789-.61-11.459-2.25-12.885-3.883-2.869-2.044-9.449S839.37,484.6,839.37,484.6Z" transform="translate(-157.975 -116.755)"/>
    <path id="Caminho_350" data-name="Caminho 350" class="cls-7" d="M890.4,587.306l2.044,61.15L904.251,655a5.283,5.283,0,0,0,2.173-1.718c14.491-21.878,9.741-85.227,9.741-85.227l5.523-40.9L918,505.928l-8.9-.945c3.436-16.406,5.686-32.332,1.95-34.058-3.324-1.538-5.506-7.061-6.923-13h0l-6.356,43.292s.533,3.9.722,7.92c.146,2.989.094,6.013-.515,7.619-1.434,3.685-.412,10.23-.412,10.23-3.685,6.494-5.523,18.528-6.425,30.15C889.932,572.584,890.4,587.306,890.4,587.306Z" transform="translate(-169.019 -112.993)"/>
    <path id="Caminho_351" data-name="Caminho 351" class="cls-14" d="M904.512,456.82s10.308,1.28,13.572,5.575,11.862,4.888,11.862,4.888,9.818,3.273,9.612,4.089,2.86,2.053,9,3.685,16.32,7.568,16.32,9,16.157,17.377,16.157,19.018,4.913,7.731,4.295,18.605-1.228,24.541,1.228,26.791,0,11.046,0,11.046a6.013,6.013,0,0,0-.129,6.545c2.044,3.685-.4,19.026-.4,19.026l.2,15.951s-2.25,10.016.412,10.428-.412,4.9-.412,4.9-2.25,8.186.619,11.862,3.676,19.43,3.676,19.43l43.807,63.564s.618,11.656-13.288,11.45-13.744,2.663-13.3,5.317-3.883,5.523-3.883,5.523-5.523,2.86-2.25,6.339,12.678,11.45-2.86,16.767a37.072,37.072,0,0,1-4.5-8.177,92.523,92.523,0,0,1-3.273-11.038s-1.435-15.547-4.295-17.592-2.457-11.862-2.457-11.862,4.089-7.971-1.632-11.244-88.843-49.245-88.843-49.245l-2.044-61.15s-1.434-45.19,7.155-60.325c0,0-1.022-6.545.412-10.222s-.206-15.547-.206-15.547Z" transform="translate(-174.275 -112.838)"/>
    <path id="Caminho_352" data-name="Caminho 352" class="cls-7" d="M831.958,484.991s-20.555-4.235-26.078-1.374-16.32,5.154-18.038,6.751-5.729.412-9.406,10.024-4.1,19.421-8.8,23.922-7.155,7.568-7.361,10.84.61,4.089-1.228,5.154-4.5,5.317-3.685,6.958,42.613,37.58,42.613,37.58,2.053,13.744,3.891,17.179-2.044,51.332-6.133,54.6,27.607,2.972,27.607,2.972,1.426-31.4,2.654-33.036-.859-35.218-.859-35.218-.206-28.629,2.457-36.2,2.362-32.692,2.362-32.692,2.354-15.092,5.214-18.614S831.958,484.991,831.958,484.991Z" transform="translate(-148.305 -116.477)"/>
    <path id="Caminho_353" data-name="Caminho 353" class="cls-14" d="M831.248,484.281s-20.564-4.235-26.087-1.374-16.32,5.111-18,6.751-5.721.4-9.449,10.016-4.089,19.43-8.8,23.931-7.155,7.568-7.361,10.84.618,4.089-1.22,5.111-4.5,5.317-3.685,6.949,42.536,37.631,42.536,37.631,2.044,13.743,3.883,17.179-2.044,51.323-6.133,54.6,27.607,2.972,27.607,2.972,1.434-31.4,2.663-33.027-.859-35.218-.859-35.218-.2-28.629,2.457-36.2,2.362-32.727,2.362-32.727,2.354-15.092,5.205-18.605S831.248,484.281,831.248,484.281Z" transform="translate(-148.187 -116.377)"/>
    <path id="Caminho_354" data-name="Caminho 354" class="cls-7" d="M840.862,460.751a41.386,41.386,0,0,1,2.371,13.812A46.925,46.925,0,0,0,897.047,453.3a115.633,115.633,0,0,1-1.993-15.247S832.075,434.784,840.862,460.751Z" transform="translate(-161.348 -110.172)"/>
    <path id="Caminho_355" data-name="Caminho 355" class="cls-15" d="M804.82,419.183a46.831,46.831,0,1,0,1.014-9.732A46.831,46.831,0,0,0,804.82,419.183Z" transform="translate(-156.316 -100.918)"/>
    <path id="Caminho_356" data-name="Caminho 356" class="cls-14" d="M763.072,553.06l-11.244,3.479s1.022,4.089-2.25,6.133-2.86,6.142-2.86,6.142-1.228,4.492-4.089,5.515-4.707,7.731-4.707,7.731l-9.406,10.84s-3.479,2.86-2.86,4.295-3.685,1.838-3.685,1.838l2.251,36.437,19.43,3.685,12.026-1.228,9.818-3.685,8.59-5.154L778,619.149l17.179-26.173Z" transform="translate(-142.436 -126.41)"/>
    <path id="Caminho_357" data-name="Caminho 357" class="cls-15" d="M717.066,606.335s-24.91-36-43.558-16.569,7.568,50.92,13.7,49.9,35.381-2.654,35.381-2.654Z" transform="translate(-133.209 -130.775)"/>
    <rect id="Retângulo_82" data-name="Retângulo 82" class="cls-2" width="52.758" height="59.956" rx="12.62" transform="translate(524.108 478.551) rotate(-42.05)"/>
    <rect id="Retângulo_83" data-name="Retângulo 83" class="cls-7" width="52.758" height="59.956" rx="12.62" transform="translate(524.108 478.551) rotate(-42.05)"/>
    <rect id="Retângulo_84" data-name="Retângulo 84" class="cls-2" width="52.758" height="59.956" rx="12.62" transform="translate(524.793 475.587) rotate(-42.05)"/>
    <circle id="Elipse_85" data-name="Elipse 85" class="cls-3" cx="11.656" cy="11.656" r="11.656" transform="translate(552.296 470.002)"/>
    <circle id="Elipse_86" data-name="Elipse 86" class="cls-7" cx="11.656" cy="11.656" r="11.656" transform="translate(552.296 470.002)"/>
    <circle id="Elipse_87" data-name="Elipse 87" class="cls-3" cx="11.656" cy="11.656" r="11.656" transform="translate(552.933 468.524)"/>
    <path id="Caminho_358" data-name="Caminho 358" class="cls-15" d="M706.5,616.69c-.206,27,55.627,32.718,55.627,32.718l14.259,2.268,6.391,1.014,2.663-26.353s-2.929-.438-6.588-1.288c-5.4-1.263-12.4-3.436-13.872-6.485C762.53,613.452,706.7,589.7,706.5,616.69Z" transform="translate(-140.011 -133.598)"/>
    <path id="Caminho_359" data-name="Caminho 359" class="cls-7" d="M806,409.483a5.558,5.558,0,0,1,3.436,1.529c1.581,1.675,1.666,4.647,3.719,5.678a4.226,4.226,0,0,0,2.44.283c5.437-.773,8.59-6.872,13.8-8.59,2.972-.962,6.245-.335,9.148.782a6.812,6.812,0,0,1,3.032,1.95c1.718,2.259.524,5.583,1.331,8.323,1.125,3.8,5.661,5.308,9.586,5.807s8.349.773,10.969,3.737a9.955,9.955,0,0,1,1.95,7.911,6.262,6.262,0,0,0,0,2.929c1.082,3.066,6.391,2.577,7.774.189,1.014-1.761.7-3.221,3.092-3.711,1.615-.335,3.513.344,5.008.859a36.686,36.686,0,0,0,12.953,1.993A46.84,46.84,0,1,0,806,409.483Z" transform="translate(-156.489 -100.95)"/>
    <path id="Caminho_360" data-name="Caminho 360" class="cls-12" d="M863.5,434.465a6.262,6.262,0,0,1,0-2.929,9.962,9.962,0,0,0-1.95-7.911c-2.577-2.963-7.044-3.247-10.969-3.737s-8.461-2-9.586-5.8c-.807-2.74.412-6.073-1.331-8.332a6.7,6.7,0,0,0-3.024-1.941c-2.912-1.125-6.185-1.718-9.157-.79-5.214,1.718-8.366,7.834-13.8,8.59a4.226,4.226,0,0,1-2.439-.283c-2.053-1.031-2.139-4-3.719-5.669-2.482-2.628-7.2-.936-10.239-2.886-1.984-1.28-2.749-3.762-3.3-6.056-1.082-4.449-1.95-9.114-.911-13.563,1.778-7.61,8.59-12.824,12.885-19.318,4.046-6.056,6.313-13.743,12.395-17.729s13.89-3.1,20.744-1.065a64.026,64.026,0,0,0,9.715,2.577c5.532.679,11.081-.859,16.647-1.014a35.75,35.75,0,0,1,21.981,6.674,12.164,12.164,0,0,1,3.591,3.633c1.108,1.958,1.254,4.295,1.589,6.511a33.283,33.283,0,0,0,4.295,11.965c1.718,2.878,3.874,5.489,5.429,8.461s2.465,6.485,1.469,9.681c-.524,1.718-1.563,3.2-1.95,4.93-.91,3.994,1.718,7.808,3.513,11.493a21.559,21.559,0,0,1,2.388,10.9,13.743,13.743,0,0,1-4.9,9.8c-2.895,2.268-6.7,3.024-10.368,3.144a36.746,36.746,0,0,1-13.211-1.984c-1.5-.515-3.436-1.194-5.008-.859-2.388.49-2.079,1.95-3.092,3.711C869.882,437.077,864.582,437.532,863.5,434.465Z" transform="translate(-154.745 -96.831)"/>
    <path id="Caminho_361" data-name="Caminho 361" class="cls-7" d="M842.742,746.658l26.379-20.615,41.523-40.9s-5.583-.275-13.744-.618a8.873,8.873,0,0,0-2.895,5.583c-.206,5-11.227.352-16.947,3.213S843.318,732.03,838.4,731.8s-8.787-2.491-10.84.988a2.121,2.121,0,0,1-.146.232,5.815,5.815,0,0,1-3.118,1.847Z" transform="translate(-159.353 -144.951)"/>
    <path id="Caminho_362" data-name="Caminho 362" class="cls-12" d="M783.87,742.888,797.124,785.2l2.079,6.648,6.313-1.718,13.915-3.822,61.983-17.025a54,54,0,0,0,22.333-5.953,67.563,67.563,0,0,1,38.516-8.4c8.195.765,17.308-2.766,24.91-16.733,0,0,17.179-50.679-26.181-65.282s-45.422,7.731-45.422,7.731-.223.12-.584.361c-1.718,1.074-6.4,4.449-6.571,8.59-.206,5-11.227.344-16.947,3.2s-33.74,38.722-38.654,38.49-8.787-2.491-10.84.988c0,.077-.094.146-.146.223-1.512,2.087-6.064,2.577-9.079,2.654-1.641.052-2.835,0-2.835,0l-.387.12-3.213.893Z" transform="translate(-159.079 -142.615)"/>
    <path id="Caminho_363" data-name="Caminho 363" class="cls-7" d="M787.86,655.128l6.391,1.014,2.663-26.353s-2.929-.438-6.588-1.288C791.3,632.151,789.1,646.384,787.86,655.128Z" transform="translate(-152.073 -137.05)"/>
    <path id="Caminho_364" data-name="Caminho 364" class="cls-7" d="M955.238,515.9s19.018-5.523,14.31,48.472-39.873,88.1-39.873,88.1-40.492,17.789-58.693,14.929a311.966,311.966,0,0,0-31.49-3.436,46.2,46.2,0,0,0-18.408-4.9c-10.23-.412-31.7-6.751-32.108-8.8s5.317-32.108,2.86-34.359c0,0,28.629,1.177,31.5,3.247s6.949.584,10.016,0,12.481-8.77,31.086-1.606c0,0,6.339.61,8.8-1.022s6.391-.412,6.391-.412,3.857-1.435,4.449-2.293,5.515,0,5.515,0a2.182,2.182,0,0,0,3.075-1.435,13.37,13.37,0,0,1,2.86-4.492s5.523-31.086,15.951-42.742c0,0,3.067-2.663,2.25-5.935S930.723,509.342,955.238,515.9Z" transform="translate(-159.796 -121.08)"/>
    <path id="Caminho_365" data-name="Caminho 365" class="cls-14" d="M954.691,511.057s19.018-5.523,14.319,48.472-39.925,88.139-39.925,88.139-40.492,17.789-58.693,14.929-31.49-3.479-31.49-3.479a46.143,46.143,0,0,0-18.408-4.9c-10.222-.412-31.7-6.752-32.108-8.8s5.317-32.108,2.869-34.359c0,0,28.629,1.177,31.49,3.247s6.958.584,10.024,0,12.472-8.761,31.086-1.606c0,0,6.339.61,8.787-1.022s6.4-.412,6.4-.412,3.831-1.435,4.441-2.25,5.523,0,5.523,0a2.173,2.173,0,0,0,3.066-1.426,13.348,13.348,0,0,1,2.86-4.5s5.523-31.086,15.951-42.742c0,0,3.067-2.663,2.25-5.927S930.108,504.511,954.691,511.057Z" transform="translate(-159.713 -120.398)"/>
    <path id="Caminho_366" data-name="Caminho 366" class="cls-7" d="M810,747.209l27.006,32.641c.1-.094.172-.163.172-.189.206-.618,2.86-7.568,2.25-7.98s-5.317-10.634-14.723-14.929c-5.747-2.577-9.509-7.293-11.562-10.522Z" transform="translate(-155.988 -153.654)"/>
    <path id="Caminho_367" data-name="Caminho 367" class="cls-7" d="M810.336,807.283,813.291,809s6.872-5.5,13.666-11.029,13.426-10.952,13.537-11.261c.2-.61,2.852-7.568,2.242-7.971-.318-.215-1.718-3.049-4.295-6.331-18.313-5.154-6.657,7.585-5.1,8.169,0,0-22.333-5.154-23.519,19.164A28.656,28.656,0,0,0,810.336,807.283Z" transform="translate(-156.01 -157.173)"/>
    <path id="Caminho_368" data-name="Caminho 368" class="cls-14" d="M833.229,817.578l3.891,2.25,39.513,1.022S885.1,826,890.6,827.567a11.964,11.964,0,0,0,1.984.438,88.72,88.72,0,0,0,10.995.206c3.023-.077,5.368-.206,5.368-.206s-1.873-49.82-3.281-54.974c-.67-2.508-3.977-1.958-7.241-.7a47.4,47.4,0,0,0-7.069,3.582s-16.767,1.623-19.43,3.066-10.222-.859-14.929,0-13.082-5.54-13.082-5.54c-22.909-7.559-10.024,6.545-8.392,7.164,0,0-22.282-5.154-23.51,19.164S833.229,817.578,833.229,817.578Z" transform="translate(-157.549 -157.177)"/>
    <path id="Caminho_369" data-name="Caminho 369" class="cls-14" d="M903.147,798.363c.429,10.308,8.461,23.1,13.245,29.858,3.024-.077,5.369-.206,5.369-.206s-1.873-49.82-3.281-54.974c-.67-2.508-3.977-1.958-7.241-.7C907.313,779.723,902.8,790.057,903.147,798.363Z" transform="translate(-170.853 -157.186)"/>
    <path id="Caminho_370" data-name="Caminho 370" class="cls-7" d="M903.147,798.363c.429,10.308,8.461,23.1,13.245,29.858,3.024-.077,5.369-.206,5.369-.206s-1.873-49.82-3.281-54.974c-.67-2.508-3.977-1.958-7.241-.7C907.313,779.723,902.8,790.057,903.147,798.363Z" transform="translate(-170.853 -157.186)"/>
    <path id="Caminho_371" data-name="Caminho 371" class="cls-13" d="M895.181,799.729c2.714,9.947,2.689,21.1,7.018,27.848a11.959,11.959,0,0,0,1.984.438,88.718,88.718,0,0,0,10.995.206c3.024-.077,5.369-.206,5.369-.206s-1.873-49.82-3.281-54.974c-.67-2.508-3.977-1.958-7.241-.7a47.409,47.409,0,0,0-7.069,3.582S891.711,787,895.181,799.729Z" transform="translate(-169.599 -157.186)"/>
    <path id="Caminho_372" data-name="Caminho 372" class="cls-7" d="M736.77,686.94s19.6,6.365,36.214,28.973Z" transform="translate(-144.242 -145.292)"/>
    <g id="Grupo_30" data-name="Grupo 30" class="cls-16" transform="translate(637.831 282.205)">
      <path id="Caminho_373" data-name="Caminho 373" d="M922.1,401.26a3.993,3.993,0,0,1-.12.429,13.858,13.858,0,0,1-.679,1.718A12.832,12.832,0,0,1,922.1,401.26Z" transform="translate(-810.715 -387.207)"/>
      <path id="Caminho_374" data-name="Caminho 374" d="M793.032,389.032a18.435,18.435,0,0,1,1.52-4.132c-.1.352-.215.7-.3,1.065-1.039,4.449-.172,9.114.911,13.563.558,2.293,1.314,4.776,3.3,6.056,3.049,1.95,7.731.249,10.239,2.878,1.581,1.675,1.666,4.647,3.728,5.678a4.217,4.217,0,0,0,2.44.283c5.429-.773,8.59-6.872,13.8-8.59,2.972-.962,6.236-.335,9.148.79a6.7,6.7,0,0,1,3.024,1.941c1.718,2.259.524,5.592,1.331,8.323,1.125,3.8,5.661,5.308,9.586,5.8s8.349.773,10.969,3.745a9.946,9.946,0,0,1,1.95,7.911,6.373,6.373,0,0,0,0,2.929c1.082,3.066,6.391,2.577,7.731.189,1.014-1.761.713-3.221,3.1-3.711,1.606-.335,3.5.344,5,.859a36.746,36.746,0,0,0,13.211,1.984c3.668-.129,7.482-.859,10.368-3.144a12.026,12.026,0,0,0,3.178-3.865,13.005,13.005,0,0,1-4.381,6.94c-2.886,2.268-6.691,3.024-10.368,3.144a36.669,36.669,0,0,1-13.2-1.984c-1.5-.515-3.436-1.194-5.008-.859-2.388.49-2.087,1.95-3.092,3.711-1.392,2.422-6.691,2.878-7.782-.189a6.373,6.373,0,0,1,0-2.929,9.926,9.926,0,0,0-1.941-7.911c-2.628-2.963-7.052-3.247-10.978-3.737s-8.461-2-9.578-5.8c-.816-2.74.412-6.073-1.331-8.332a6.769,6.769,0,0,0-3.032-1.941c-2.912-1.125-6.176-1.718-9.148-.79-5.223,1.718-8.375,7.834-13.8,8.59a4.217,4.217,0,0,1-2.439-.283c-2.062-1.031-2.147-4-3.728-5.669-2.482-2.628-7.19-.936-10.23-2.886-1.993-1.28-2.749-3.762-3.307-6.056C792.852,398.145,791.984,393.481,793.032,389.032Z" transform="translate(-792.558 -384.9)"/>
    </g>
    <path id="Caminho_375" data-name="Caminho 375" class="cls-7" d="M923.223,578.651c-3.745,5.059-8.023,9.741-11.338,15.092s-5.661,11.6-4.965,17.849c3.436-3.522,5-8.384,7.164-12.8,3.659-7.473,9.139-13.812,13.744-20.684.859-1.314,6.537-8.89,3.676-9.251C929.15,568.558,924.5,576.924,923.223,578.651Z" transform="translate(-171.575 -128.638)"/>
  </g>
</svg>
