<svg id="inclusao" xmlns="http://www.w3.org/2000/svg" xmlns:xlink="http://www.w3.org/1999/xlink" width="695.074" height="695.074" viewBox="0 0 695.074 695.074">
  <defs>
    <style>
      .cls-1 {
        fill: rgba(191,41,255,0.86);
        opacity: 0.23;
      }

      .cls-2 {
        fill: #2196f3;
      }

      .cls-3 {
        fill: url(#linear-gradient);
      }

      .cls-4 {
        fill: #1976d2;
      }

      .cls-5 {
        fill: #64b5f6;
      }

      .cls-6 {
        fill: #0071bc;
      }

      .cls-7 {
        fill: #82a9ff;
      }

      .cls-8 {
        fill: #0d47a1;
      }

      .cls-9 {
        fill: #fff;
      }

      .cls-10 {
        fill: #b200ff;
      }

      .cls-11 {
        fill: #e0e0e0;
      }

      .cls-12 {
        opacity: 0.2;
      }
    </style>
    <linearGradient id="linear-gradient" x1="0.5" y1="1" x2="0.5" gradientUnits="objectBoundingBox">
      <stop offset="0" stop-color="gray" stop-opacity="0.251"/>
      <stop offset="0.535" stop-color="gray" stop-opacity="0.122"/>
      <stop offset="1" stop-color="gray" stop-opacity="0.102"/>
    </linearGradient>
  </defs>
  <path id="Caminho_147" data-name="Caminho 147" class="cls-1" d="M925.689,494.814c-19.9,111.871-93.329,205.238-192.864,252.652-.477.229-.964.458-1.451.687q-5.829,2.75-11.791,5.289c-1.069.449-2.129.9-3.208,1.337A344.707,344.707,0,0,1,649.607,774.8c-1.012.2-2.024.382-3.036.563a348.775,348.775,0,0,1-62.776,5.71h-.964c-1.871,0-3.743-.019-5.6-.067-.353,0-.706,0-1.06-.019a348.608,348.608,0,0,1-62.48-6.932c-1-.21-2.005-.42-3.007-.64a343.305,343.305,0,0,1-54.25-16.327c-1.079-.411-2.139-.84-3.208-1.279q-5.958-2.392-11.791-5.022c-.487-.22-.974-.439-1.451-.659C337.54,703.6,261.664,608.823,241.385,494.814c-.277-1.547-.544-3.093-.792-4.64a351.452,351.452,0,0,1-.038-113.026c.344-2.148.716-4.306,1.117-6.445a342.687,342.687,0,0,1,11.171-44.34q.716-2.22,1.461-4.44C300.8,184.742,430.64,86,583.537,86c170.484,0,312.3,122.765,341.866,284.7.4,2.139.773,4.3,1.117,6.445C929.559,395.79,925.966,493.267,925.689,494.814Z" transform="translate(-236 -86)"/>
  <path id="Caminho_148" data-name="Caminho 148" class="cls-2" d="M546.1,228.779h-1.854c-.378,0-1.311-1.482-1.311-1.907v-1.722c0-1.344-1.52-5.031-2.864-5.031s-2.864,3.687-2.864,5.031v1.722c0,.606-.468,1.907-1.04,1.907H534.31c-1.344,0-5.031,1.043-5.031,2.387s3.687,2.387,5.031,2.387h2.211c.7,0,.683.72.683,1.087v2.3c0,1.344,1.52,5.031,2.864,5.031s2.864-3.687,2.864-5.031v-2.3c0-.3.615-1.087.954-1.087H546.1c1.344,0,5.031-1.043,5.031-2.387S547.442,228.779,546.1,228.779Z" transform="translate(-249.265 -92.066)"/>
  <path id="Caminho_149" data-name="Caminho 149" class="cls-3" d="M273.824,331.886h-2.449c-.5,0-1.732-1.957-1.732-2.519v-2.275c0-1.775-2.008-6.646-3.784-6.646s-3.784,4.871-3.784,6.646v2.275c0,.8-.618,2.519-1.374,2.519h-2.449c-1.776,0-6.646,1.378-6.646,3.153s4.871,3.153,6.646,3.153h2.92c.925,0,.9.951.9,1.436v3.035c0,1.776,2.008,6.646,3.784,6.646s3.784-4.871,3.784-6.646v-3.035c0-.4.812-1.436,1.26-1.436h2.92c1.775,0,6.646-1.378,6.646-3.153S275.6,331.886,273.824,331.886Z" transform="translate(-236.706 -96.604)"/>
  <path id="Caminho_150" data-name="Caminho 150" class="cls-3" d="M547.823,227.886h-2.449c-.5,0-1.732-1.958-1.732-2.519v-2.275c0-1.775-2.008-6.646-3.784-6.646s-3.784,4.871-3.784,6.646v2.275c0,.8-.618,2.519-1.374,2.519h-2.449c-1.775,0-6.646,1.378-6.646,3.153s4.871,3.153,6.646,3.153h2.92c.925,0,.9.951.9,1.436v3.035c0,1.776,2.008,6.646,3.784,6.646s3.784-4.871,3.784-6.646v-3.035c0-.4.812-1.436,1.26-1.436h2.92c1.775,0,6.646-1.378,6.646-3.153S549.6,227.886,547.823,227.886Z" transform="translate(-249.098 -91.9)"/>
  <path id="Caminho_151" data-name="Caminho 151" class="cls-3" d="M824.823,274.886h-2.449c-.5,0-1.732-1.958-1.732-2.519v-2.275c0-1.775-2.008-6.646-3.784-6.646s-3.784,4.871-3.784,6.646v2.275c0,.8-.618,2.519-1.374,2.519h-2.449c-1.776,0-6.646,1.378-6.646,3.153s4.871,3.153,6.646,3.153h2.92c.925,0,.9.951.9,1.436v3.035c0,1.775,2.008,6.646,3.784,6.646s3.784-4.871,3.784-6.646v-3.035c0-.4.812-1.436,1.26-1.436h2.92c1.775,0,6.646-1.378,6.646-3.153S826.6,274.886,824.823,274.886Z" transform="translate(-261.627 -94.026)"/>
  <path id="Caminho_152" data-name="Caminho 152" class="cls-4" d="M715.3,258.928h-1.181c-.241,0-.944-.935-.944-1.206v-1.1c0-.857-1.053-3.206-1.91-3.206s-1.91,2.35-1.91,3.206v1.1c0,.386-.022,1.206-.386,1.206h-1.181c-.857,0-3.206.576-3.206,1.432s2.35,1.432,3.206,1.432h1.409c.446,0,.159.647.159.88v1.464c0,.857,1.053,3.206,1.91,3.206s1.91-2.35,1.91-3.206v-1.463c0-.194.5-.88.716-.88H715.3c.857,0,3.206-.576,3.206-1.432S716.154,258.928,715.3,258.928Z" transform="translate(-257.193 -93.572)"/>
  <path id="Caminho_153" data-name="Caminho 153" class="cls-3" d="M367.456,314.806h-1.926c-.392,0-1.539-1.524-1.539-1.965v-1.789c0-1.4-1.717-5.226-3.113-5.226s-3.113,3.83-3.113,5.226v1.789c0,.63-.035,1.965-.629,1.965h-1.926c-1.4,0-5.226.938-5.226,2.335s3.83,2.335,5.226,2.335h2.3c.727,0,.259,1.054.259,1.435V323.3c0,1.4,1.717,5.227,3.113,5.227s3.113-3.83,3.113-5.227v-2.387c0-.316.815-1.435,1.168-1.435h2.3c1.4,0,5.227-.938,5.227-2.335S368.852,314.806,367.456,314.806Z" transform="translate(-241.155 -95.942)"/>
  <path id="Caminho_154" data-name="Caminho 154" class="cls-3" d="M717.456,257.806h-1.926c-.392,0-1.539-1.524-1.539-1.965v-1.789c0-1.4-1.717-5.227-3.113-5.227s-3.113,3.83-3.113,5.227v1.789c0,.63-.035,1.965-.63,1.965h-1.926c-1.4,0-5.227.938-5.227,2.335s3.83,2.335,5.227,2.335h2.3c.727,0,.258,1.054.258,1.435V266.3c0,1.4,1.716,5.226,3.113,5.226s3.113-3.83,3.113-5.226v-2.387c0-.316.815-1.435,1.168-1.435h2.3c1.4,0,5.227-.938,5.227-2.334S718.852,257.806,717.456,257.806Z" transform="translate(-256.985 -93.364)"/>
  <path id="Caminho_155" data-name="Caminho 155" class="cls-4" d="M365.3,315.928h-1.181c-.241,0-.944-.935-.944-1.206v-1.1c0-.857-1.053-3.206-1.91-3.206s-1.91,2.35-1.91,3.206v1.1c0,.386-.022,1.206-.386,1.206h-1.181c-.857,0-3.206.576-3.206,1.432s2.35,1.432,3.206,1.432h1.409c.446,0,.159.647.159.88v1.464c0,.857,1.053,3.206,1.91,3.206s1.91-2.35,1.91-3.206v-1.463c0-.194.5-.88.716-.88H365.3c.856,0,3.206-.576,3.206-1.432S366.154,315.928,365.3,315.928Z" transform="translate(-241.363 -96.15)"/>
  <circle id="Elipse_47" data-name="Elipse 47" class="cls-5" cx="7.161" cy="7.161" r="7.161" transform="translate(388.19 135.758)"/>
  <circle id="Elipse_48" data-name="Elipse 48" class="cls-6" cx="2.387" cy="2.387" r="2.387" transform="translate(378.642 208.64)"/>
  <circle id="Elipse_49" data-name="Elipse 49" class="cls-5" cx="6.644" cy="6.644" r="6.644" transform="translate(104.624 150.08)"/>
  <circle id="Elipse_50" data-name="Elipse 50" class="cls-5" cx="3.322" cy="3.322" r="3.322" transform="translate(49.246 178.545)"/>
  <circle id="Elipse_51" data-name="Elipse 51" class="cls-7" cx="3.322" cy="3.322" r="3.322" transform="translate(323.265 246.334)"/>
  <circle id="Elipse_52" data-name="Elipse 52" class="cls-7" cx="6.206" cy="6.206" r="6.206" transform="translate(73.395 302.764)"/>
  <circle id="Elipse_53" data-name="Elipse 53" class="cls-3" cx="5.797" cy="5.797" r="5.797" transform="translate(196.89 136.367)"/>
  <circle id="Elipse_54" data-name="Elipse 54" class="cls-3" cx="5.797" cy="5.797" r="5.797" transform="translate(197.844 208.929)"/>
  <circle id="Elipse_55" data-name="Elipse 55" class="cls-3" cx="5.797" cy="5.797" r="5.797" transform="translate(502.417 121.09)"/>
  <circle id="Elipse_56" data-name="Elipse 56" class="cls-3" cx="5.797" cy="5.797" r="5.797" transform="translate(635.13 224.206)"/>
  <circle id="Elipse_57" data-name="Elipse 57" class="cls-8" cx="3.541" cy="3.541" r="3.541" transform="translate(199.146 138.623)"/>
  <circle id="Elipse_58" data-name="Elipse 58" class="cls-5" cx="7.161" cy="7.161" r="7.161" transform="translate(284.12 187.316)"/>
  <path id="Caminho_156" data-name="Caminho 156" class="cls-9" d="M747.76,602.219c-.229,8.4-2.96,16.432-6.216,24.232-.477,1.146-.964,2.282-1.451,3.409l-1.518,3.437c-2.654,6-5.366,12.078-9.548,17.129-.239.286-.477.573-.726.85a29.825,29.825,0,0,1-3.208,3.1,21.946,21.946,0,0,1-12.746,5.413c-9.109.477-17-5.872-23.9-11.858q-12.331-10.684-24.662-21.4c-2.826-2.444-9.681-8.392-10.283-8.918V734.35H651.4l1.26,19.773,2.635,41.38a348.767,348.767,0,0,1-62.776,5.71l-1.738-47.023-.5-13.4-.239-6.445h-1.967l-.172,3.5-.773,16.336-2.244,46.936a348.6,348.6,0,0,1-62.48-6.932L524.9,754.18l1.241-19.831h-1.232V615.729a103.424,103.424,0,0,1-12.145,13.405c-8.65,8.116-18.5,15.171-28.194,22.046-5.881,4.172-12.574,8.478-19.42,10.13a25.1,25.1,0,0,1-3.208.563,19.477,19.477,0,0,1-8.927-.964,17.771,17.771,0,0,1-2.864-1.318c-.506-.277-.983-.573-1.451-.888-7.151-4.879-10.913-14.236-13.863-22.743-3.571-10.312-7.2-21.11-5.681-31.918.926-6.54,3.657-12.546,7.075-18.246,2.32-3.867,4.955-7.59,7.562-11.238,1.251-1.747,2.759-3.638,4.755-4.172h.01l.143-.029a3.794,3.794,0,0,1,.735-.1,5.853,5.853,0,0,1,.716.019c2,.239,3.686,1.833,5.127,3.313l6.664,6.865,3.208,3.294c.172.181.344.363.525.544,1.413,1.451,2.817,2.9,4.23,4.354,2.759-4.764,5.538-9.557,8.469-14.245,5.958-9.548,12.546-18.656,20.824-26.228a69.15,69.15,0,0,1,13.567-9.739,57.006,57.006,0,0,1,13.491-5.337c5.423-1.356,9.462-1.977,12.231-1,2.177.764,3.571,2.53,4.23,5.709a.282.282,0,0,1,.019.1,26.715,26.715,0,0,1,.439,5.108c0,1.06,0,2.12-.01,3.189h90.722c-.086-2.75-.162-5.767-.019-8.3.029-.611.076-1.193.134-1.738a7.206,7.206,0,0,1,1.031-3.561,4.513,4.513,0,0,1,3.523-1.318c4.182-.057,10.226,2.721,13.185,3.829a86.823,86.823,0,0,1,12.049,5.614c18.656,10.445,33.627,27.641,40.5,47.949a18.669,18.669,0,0,1,3.533-6.884,21.32,21.32,0,0,1,3.79-3.685,23.247,23.247,0,0,1,7.581-3.819,21.411,21.411,0,0,1,5.9-.907,18.929,18.929,0,0,1,3.208.21,18.129,18.129,0,0,1,4.974,1.461,21.558,21.558,0,0,1,6.817,5c.516.554.993,1.127,1.451,1.719a30.688,30.688,0,0,1,5.652,13.223,34.177,34.177,0,0,1,.563,7.228Z" transform="translate(-244.72 -106.139)"/>
  <path id="Caminho_157" data-name="Caminho 157" class="cls-9" d="M649.343,460.356h0c-7.2-25.448-29.588-46.026-56.111-46.026s-48.915,20.578-56.111,46.026h0a11.912,11.912,0,0,0-11.911,11.911v14.485H535.4c4.388,27.679,28.607,46.026,57.833,46.026s53.445-18.346,57.833-46.026h10.5V472.575a12.219,12.219,0,0,0-12.219-12.219Z" transform="translate(-249.08 -100.85)"/>
  <path id="Caminho_230" data-name="Caminho 230" class="cls-10" d="M47.379,0A47.379,47.379,0,1,1,0,47.379,47.379,47.379,0,0,1,47.379,0Z" transform="translate(296.433 329.724)"/>
  <path id="Caminho_158" data-name="Caminho 158" class="cls-11" d="M758.491,377.135a10.579,10.579,0,0,1-2.034,6.254,10.414,10.414,0,0,1-2.33,2.339.526.526,0,0,1-.086.067V760.839q-5.829,2.75-11.792,5.289V386.206a10.654,10.654,0,1,1,16.241-9.07Z" transform="translate(-258.668 -98.686)"/>
  <path id="Caminho_159" data-name="Caminho 159" class="cls-10" d="M954.544,445.783c0,19.323-1.565,35.411-4.593,49.366-65.007-95.533-130.014,117.7-195.022,7.271V389.394c65.02,110.447,130.04-102.887,195.06-7.215A495.728,495.728,0,0,1,954.544,445.783Z" transform="translate(-259.47 -98.246)"/>
  <path id="Caminho_160" data-name="Caminho 160" class="cls-11" d="M467.82,377.135a10.525,10.525,0,0,1-3.6,7.963,9.808,9.808,0,0,1-1.48,1.108V768.5q-5.958-2.391-11.791-5.022V385.795a.527.527,0,0,1-.086-.067,10.415,10.415,0,0,1-2.33-2.339,10.657,10.657,0,1,1,19.286-6.254Z" transform="translate(-245.521 -98.686)"/>
  <path id="Caminho_161" data-name="Caminho 161" class="cls-10" d="M441.343,389.394V502.42c-66.917-110.5-133.833,103.085-200.75,7.082A491.93,491.93,0,0,1,236,445.783c0-19.235,1.556-35.349,4.554-49.362C307.484,492.56,374.413,278.876,441.343,389.394Z" transform="translate(-236 -98.246)"/>
  <path id="Caminho_162" data-name="Caminho 162" class="cls-12" d="M599.835,441.81a47.3,47.3,0,0,1,37.825,18.852,47.381,47.381,0,1,0-81.632,46.588,47.388,47.388,0,0,1,43.806-65.44Z" transform="translate(-250.042 -101.619)"/>
  <path id="Caminho_163" data-name="Caminho 163" class="cls-2" d="M418.6,339.779h-1.854c-.378,0-1.311-1.482-1.311-1.907V336.15c0-1.344-1.52-5.031-2.864-5.031s-2.864,3.687-2.864,5.031v1.722c0,.606-.468,1.907-1.04,1.907H406.81c-1.344,0-5.031,1.043-5.031,2.387s3.687,2.387,5.031,2.387h2.211c.7,0,.683.72.683,1.087v2.3c0,1.344,1.52,5.031,2.864,5.031s2.864-3.687,2.864-5.031v-2.3c0-.3.615-1.087.954-1.087H418.6c1.344,0,5.031-1.043,5.031-2.387S419.942,339.779,418.6,339.779Z" transform="translate(-243.498 -97.086)"/>
  <circle id="Elipse_60" data-name="Elipse 60" class="cls-8" cx="3.342" cy="3.342" r="3.342" transform="translate(251.18 306.026)"/>
  <circle id="Elipse_61" data-name="Elipse 61" class="cls-5" cx="6.644" cy="6.644" r="6.644" transform="translate(610.175 237.919)"/>
  <circle id="Elipse_62" data-name="Elipse 62" class="cls-6" cx="2.387" cy="2.387" r="2.387" transform="translate(360.979 290.75)"/>
  <circle id="Elipse_63" data-name="Elipse 63" class="cls-8" cx="3.541" cy="3.541" r="3.541" transform="translate(200.101 211.186)"/>
  <path id="Caminho_164" data-name="Caminho 164" class="cls-2" d="M823.1,275.779h-1.854c-.378,0-1.311-1.482-1.311-1.907v-1.722c0-1.344-1.52-5.031-2.864-5.031s-2.864,3.687-2.864,5.031v1.722c0,.606-.468,1.907-1.04,1.907H811.31c-1.344,0-5.031,1.043-5.031,2.387s3.687,2.387,5.031,2.387h2.211c.7,0,.683.72.683,1.087v2.3c0,1.344,1.52,5.031,2.864,5.031s2.864-3.687,2.864-5.031v-2.3c0-.3.615-1.087.954-1.087H823.1c1.344,0,5.031-1.043,5.031-2.387S824.442,275.779,823.1,275.779Z" transform="translate(-261.793 -94.192)"/>
  <circle id="Elipse_64" data-name="Elipse 64" class="cls-8" cx="3.342" cy="3.342" r="3.342" transform="translate(637.385 225.825)"/>
  <circle id="Elipse_65" data-name="Elipse 65" class="cls-8" cx="3.342" cy="3.342" r="3.342" transform="translate(504.672 123.665)"/>
  <circle id="Elipse_66" data-name="Elipse 66" class="cls-3" cx="8.878" cy="8.878" r="8.878" transform="translate(596.96 212.77)"/>
  <circle id="Elipse_67" data-name="Elipse 67" class="cls-3" cx="8.878" cy="8.878" r="8.878" transform="translate(468.066 229.001)"/>
  <circle id="Elipse_68" data-name="Elipse 68" class="cls-3" cx="8.878" cy="8.878" r="8.878" transform="translate(386.911 134.479)"/>
  <circle id="Elipse_69" data-name="Elipse 69" class="cls-3" cx="8.878" cy="8.878" r="8.878" transform="translate(282.841 186.036)"/>
  <circle id="Elipse_70" data-name="Elipse 70" class="cls-3" cx="8.878" cy="8.878" r="8.878" transform="translate(102.389 147.845)"/>
  <circle id="Elipse_71" data-name="Elipse 71" class="cls-3" cx="8.878" cy="8.878" r="8.878" transform="translate(70.881 299.654)"/>
  <circle id="Elipse_72" data-name="Elipse 72" class="cls-3" cx="4.799" cy="4.799" r="4.799" transform="translate(573.849 122.646)"/>
  <circle id="Elipse_73" data-name="Elipse 73" class="cls-3" cx="4.799" cy="4.799" r="4.799" transform="translate(321.789 244.857)"/>
  <circle id="Elipse_74" data-name="Elipse 74" class="cls-3" cx="4.799" cy="4.799" r="4.799" transform="translate(47.77 177.068)"/>
  <circle id="Elipse_75" data-name="Elipse 75" class="cls-3" cx="4.799" cy="4.799" r="4.799" transform="translate(109.829 298.324)"/>
  <circle id="Elipse_76" data-name="Elipse 76" class="cls-3" cx="4.799" cy="4.799" r="4.799" transform="translate(218.673 282.093)"/>
  <circle id="Elipse_77" data-name="Elipse 77" class="cls-3" cx="4.799" cy="4.799" r="4.799" transform="translate(376.211 206.666)"/>
  <circle id="Elipse_78" data-name="Elipse 78" class="cls-7" cx="3.322" cy="3.322" r="3.322" transform="translate(575.325 124.123)"/>
  <circle id="Elipse_79" data-name="Elipse 79" class="cls-5" cx="6.206" cy="6.206" r="6.206" transform="translate(599.473 215.88)"/>
  <ellipse id="Elipse_80" data-name="Elipse 80" class="cls-12" cx="28.249" cy="5.358" rx="28.249" ry="5.358" transform="translate(313.664 391.151)"/>
  <rect id="Ret창ngulo_80" data-name="Ret창ngulo 80" class="cls-9" width="2.922" height="59.421" transform="translate(310.741 274.258)"/>
  <rect id="Ret창ngulo_81" data-name="Ret창ngulo 81" class="cls-9" width="3.896" height="59.421" transform="translate(379.903 279.129)"/>
  <circle id="Elipse_81" data-name="Elipse 81" class="cls-9" cx="9.254" cy="9.254" r="9.254" transform="translate(302.948 264.517)"/>
  <ellipse id="Elipse_82" data-name="Elipse 82" class="cls-9" cx="9.741" cy="9.254" rx="9.741" ry="9.254" transform="translate(372.11 264.517)"/>
</svg>
