<svg width="829" height="745" viewBox="0 0 829 745" fill="none" xmlns="http://www.w3.org/2000/svg">
<g id="index 1">
<g clip-path="url(#clip0)">
<path id="Vector" d="M382.9 692.59C561.658 692.59 706.57 547.678 706.57 368.92C706.57 190.162 561.658 45.25 382.9 45.25C204.142 45.25 59.23 190.162 59.23 368.92C59.23 547.678 204.142 692.59 382.9 692.59Z" fill="url(#paint0_linear)"/>
<path id="planet" d="M382.9 684.65C557.273 684.65 698.63 543.293 698.63 368.92C698.63 194.547 557.273 53.19 382.9 53.19C208.527 53.19 67.17 194.547 67.17 368.92C67.17 543.293 208.527 684.65 382.9 684.65Z" fill="#FFA24B"/>
<path id="Vector_2" opacity="0.05" d="M280.81 225.65C302.471 225.65 320.03 208.091 320.03 186.43C320.03 164.769 302.471 147.21 280.81 147.21C259.149 147.21 241.59 164.769 241.59 186.43C241.59 208.091 259.149 225.65 280.81 225.65Z" fill="black"/>
<path id="Vector_3" opacity="0.05" d="M400.77 645.65C422.431 645.65 439.99 628.091 439.99 606.43C439.99 584.769 422.431 567.21 400.77 567.21C379.109 567.21 361.55 584.769 361.55 606.43C361.55 628.091 379.109 645.65 400.77 645.65Z" fill="black"/>
<path id="Vector_4" opacity="0.05" d="M439.99 404.22C484.278 404.22 520.18 368.318 520.18 324.03C520.18 279.742 484.278 243.84 439.99 243.84C395.702 243.84 359.8 279.742 359.8 324.03C359.8 368.318 395.702 404.22 439.99 404.22Z" fill="black"/>
<path id="Vector_5" d="M509.73 462.89C470.01 462.89 427.73 460.99 384.51 457.17C288.44 448.69 198.89 431.76 132.37 409.51C65.37 387.08 29.57 361.74 31.65 338.16C32.7 326.22 43.22 315.56 62.9 306.48L63.9 308.73C45.08 317.41 35.05 327.38 34.08 338.38C33.11 349.38 41.43 361.22 58.83 373.2C75.93 384.97 100.92 396.39 133.12 407.2C199.47 429.4 288.81 446.28 384.7 454.74C480.59 463.2 571.51 462.23 640.7 452C674.28 447 700.89 440.16 719.79 431.57C739.03 422.83 749.28 412.75 750.26 401.62C751.38 388.95 739.93 375.06 717.16 361.46L718.43 359.33C742.43 373.66 753.96 387.96 752.73 401.84C750.65 425.43 710.99 444.11 641.07 454.44C603 460.05 558.23 462.88 509.73 462.89Z" fill="url(#paint1_linear)"/>
<path id="Vector_6" opacity="0.5" d="M717.83 357.89C740.54 371.46 752.74 385.56 751.53 399.22C747.34 446.69 583.07 470.97 384.62 453.45C186.17 435.93 28.69 383.25 32.88 335.78C33.88 324.05 44.73 313.78 63.41 305.12" stroke="#BDBDBD" stroke-width="3" stroke-miterlimit="10"/>
<path id="Vector_7" d="M423.39 509.39C394.77 497.05 365.56 483.28 336.58 468.45C250.71 424.53 174.06 375.24 120.75 329.64C67.03 283.7 43.39 246.79 54.17 225.7C59.63 215.02 73.38 209.09 95.02 208.06L95.14 210.53C74.44 211.53 61.4 216.99 56.37 226.82C51.34 236.65 54.61 250.75 66.25 268.38C77.68 285.7 96.56 305.68 122.36 327.74C175.52 373.24 252 422.42 337.7 466.25C366.64 481.05 395.79 494.8 424.37 507.12L423.39 509.39Z" fill="url(#paint2_linear)"/>
<path id="Vector_8" d="M428 508.25C399.91 496.14 370.81 482.46 341.26 467.35C163.89 376.64 37.7 268.7 59.4 226.28C64.76 215.8 78.65 210.28 99.21 209.28" stroke="#BDBDBD" stroke-width="3" stroke-miterlimit="10"/>
<path id="Vector_9" d="M655.73 580.19C629.73 580.19 593.06 571.69 543.56 554.63L544.37 552.29C638.83 584.83 685.56 586.15 700.62 556.7C706.41 545.38 701.01 528.21 685.01 507.05L687.01 505.56C703.87 527.84 709.2 545.43 702.85 557.83C695.2 572.72 680.12 580.18 655.73 580.19Z" fill="url(#paint3_linear)"/>
<path id="Vector_10" d="M686 503.82C702 524.92 708 542.57 701.73 554.82C687.34 582.95 528.66 542.8 427.5 508" stroke="#BDBDBD" stroke-width="3" stroke-miterlimit="10"/>
<g id="Star12" opacity="0.5">
<path id="Vector_11" opacity="0.5" d="M97.5999 661.7H94.3799V679.93H97.5999V661.7Z" fill="#47E6B1"/>
<path id="Vector_12" opacity="0.5" d="M105.1 672.43V669.21H86.87V672.43H105.1Z" fill="#47E6B1"/>
</g>
<g id="Star11" opacity="0.5">
<path id="Vector_13" opacity="0.5" d="M751.79 3.22H748.57V21.45H751.79V3.22Z" fill="#47E6B1"/>
<path id="Vector_14" opacity="0.5" d="M759.29 13.95V10.73L741.06 10.73V13.95L759.29 13.95Z" fill="#47E6B1"/>
</g>
<g id="Star10" opacity="0.5">
<path id="Vector_15" opacity="0.5" d="M821.5 500.83H818.28V519.06H821.5V500.83Z" fill="#47E6B1"/>
<path id="Vector_16" opacity="0.5" d="M829 511.56V508.34H810.77V511.56H829Z" fill="#47E6B1"/>
</g>
<g id="Star9" opacity="0.5">
<path id="Vector_17" opacity="0.5" d="M108.32 47.19H105.1V65.42H108.32V47.19Z" fill="#47E6B1"/>
<path id="Vector_18" opacity="0.5" d="M115.83 57.92V54.7H97.6V57.92H115.83Z" fill="#47E6B1"/>
</g>
<path id="Star8" opacity="0.5" d="M200.22 724.22C199.333 723.835 198.619 723.137 198.213 722.259C197.807 721.381 197.739 720.385 198.02 719.46C198.067 719.317 198.098 719.17 198.11 719.02V719.02C198.12 718.603 197.999 718.194 197.765 717.849C197.53 717.504 197.194 717.241 196.803 717.097C196.412 716.953 195.985 716.934 195.583 717.044C195.181 717.154 194.823 717.387 194.56 717.71C194.471 717.831 194.398 717.962 194.34 718.1C193.955 718.987 193.257 719.701 192.379 720.107C191.501 720.513 190.505 720.581 189.58 720.3C189.437 720.253 189.29 720.222 189.14 720.21V720.21C188.723 720.2 188.314 720.321 187.969 720.555C187.624 720.79 187.361 721.126 187.217 721.517C187.073 721.908 187.054 722.335 187.164 722.737C187.274 723.139 187.507 723.497 187.83 723.76C187.951 723.849 188.082 723.922 188.22 723.98C189.107 724.365 189.821 725.063 190.227 725.941C190.633 726.819 190.701 727.815 190.42 728.74C190.373 728.883 190.342 729.03 190.33 729.18V729.18C190.32 729.597 190.441 730.006 190.675 730.351C190.91 730.696 191.246 730.959 191.637 731.103C192.028 731.247 192.455 731.266 192.857 731.156C193.259 731.046 193.617 730.813 193.88 730.49C193.969 730.369 194.042 730.238 194.1 730.1C194.485 729.213 195.183 728.499 196.061 728.093C196.939 727.687 197.935 727.619 198.86 727.9C199.003 727.947 199.15 727.978 199.3 727.99V727.99C199.717 728 200.126 727.879 200.471 727.645C200.816 727.41 201.079 727.074 201.223 726.683C201.367 726.292 201.386 725.865 201.276 725.463C201.166 725.061 200.933 724.703 200.61 724.44C200.489 724.351 200.358 724.278 200.22 724.22V724.22Z" fill="#4D8AF0"/>
<path id="Star7" opacity="0.5" d="M396.47 737.13C395.583 736.745 394.869 736.047 394.463 735.169C394.057 734.291 393.989 733.295 394.27 732.37C394.317 732.227 394.348 732.08 394.36 731.93V731.93C394.37 731.513 394.249 731.104 394.015 730.759C393.78 730.414 393.444 730.151 393.053 730.007C392.662 729.863 392.235 729.844 391.833 729.954C391.431 730.064 391.073 730.297 390.81 730.62C390.721 730.741 390.648 730.872 390.59 731.01C390.205 731.897 389.507 732.611 388.629 733.017C387.751 733.423 386.755 733.491 385.83 733.21C385.687 733.163 385.54 733.132 385.39 733.12V733.12C384.973 733.11 384.564 733.231 384.219 733.465C383.874 733.7 383.611 734.036 383.467 734.427C383.323 734.818 383.304 735.245 383.414 735.647C383.524 736.049 383.757 736.407 384.08 736.67C384.201 736.759 384.332 736.832 384.47 736.89C385.357 737.275 386.071 737.973 386.477 738.851C386.883 739.729 386.951 740.725 386.67 741.65C386.623 741.793 386.592 741.94 386.58 742.09V742.09C386.57 742.507 386.691 742.916 386.925 743.261C387.16 743.606 387.496 743.869 387.887 744.013C388.278 744.157 388.705 744.176 389.107 744.066C389.509 743.956 389.867 743.723 390.13 743.4C390.219 743.279 390.292 743.148 390.35 743.01C390.735 742.123 391.433 741.409 392.311 741.003C393.189 740.597 394.185 740.529 395.11 740.81C395.253 740.857 395.4 740.888 395.55 740.9V740.9C395.967 740.91 396.376 740.789 396.721 740.555C397.066 740.32 397.329 739.984 397.473 739.593C397.617 739.202 397.636 738.775 397.526 738.373C397.416 737.971 397.183 737.613 396.86 737.35C396.739 737.261 396.608 737.188 396.47 737.13V737.13Z" fill="#4D8AF0"/>
<path id="Star6" opacity="0.5" d="M784.7 219.13C783.813 218.745 783.099 218.047 782.693 217.169C782.287 216.291 782.219 215.295 782.5 214.37C782.547 214.227 782.578 214.08 782.59 213.93C782.6 213.513 782.479 213.104 782.245 212.759C782.01 212.414 781.674 212.151 781.283 212.007C780.892 211.863 780.465 211.844 780.063 211.954C779.661 212.064 779.303 212.297 779.04 212.62C778.951 212.741 778.878 212.872 778.82 213.01C778.435 213.897 777.737 214.611 776.859 215.017C775.981 215.423 774.985 215.491 774.06 215.21C773.917 215.163 773.77 215.132 773.62 215.12C773.203 215.11 772.794 215.231 772.449 215.465C772.104 215.7 771.841 216.036 771.697 216.427C771.553 216.818 771.534 217.245 771.644 217.647C771.754 218.049 771.987 218.407 772.31 218.67C772.431 218.759 772.562 218.832 772.7 218.89C773.587 219.275 774.301 219.973 774.707 220.851C775.113 221.729 775.181 222.725 774.9 223.65C774.853 223.793 774.822 223.94 774.81 224.09C774.8 224.507 774.921 224.916 775.155 225.261C775.39 225.606 775.726 225.869 776.117 226.013C776.508 226.157 776.935 226.176 777.337 226.066C777.739 225.956 778.097 225.723 778.36 225.4C778.449 225.279 778.522 225.148 778.58 225.01C778.965 224.123 779.663 223.409 780.541 223.003C781.419 222.597 782.415 222.529 783.34 222.81C783.483 222.857 783.63 222.888 783.78 222.9C784.197 222.91 784.606 222.789 784.951 222.555C785.296 222.32 785.559 221.984 785.703 221.593C785.847 221.202 785.866 220.775 785.756 220.373C785.646 219.971 785.413 219.613 785.09 219.35C784.969 219.261 784.838 219.188 784.7 219.13Z" fill="#33FFCE"/>
<path id="Star5" opacity="0.5" d="M20.26 502.93C19.3731 502.545 18.6588 501.847 18.2531 500.969C17.8474 500.091 17.7787 499.095 18.06 498.17C18.1074 498.027 18.1376 497.88 18.15 497.73V497.73C18.1597 497.313 18.039 496.904 17.8046 496.559C17.5703 496.214 17.234 495.951 16.8429 495.807C16.4518 495.663 16.0253 495.644 15.6232 495.754C15.2211 495.864 14.8633 496.097 14.6 496.42V496.42C14.5115 496.541 14.4376 496.672 14.38 496.81C13.9948 497.697 13.2969 498.411 12.4191 498.817C11.5414 499.223 10.5451 499.291 9.61998 499.01C9.47741 498.963 9.3297 498.932 9.17998 498.92V498.92C8.76319 498.91 8.35379 499.031 8.00899 499.265C7.66419 499.5 7.40124 499.836 7.25691 500.227C7.11258 500.618 7.09409 501.045 7.20401 501.447C7.31393 501.849 7.54677 502.207 7.86998 502.47V502.47C7.9908 502.559 8.12172 502.632 8.25998 502.69C9.14689 503.075 9.86119 503.773 10.2669 504.651C10.6725 505.529 10.7413 506.525 10.46 507.45C10.4126 507.593 10.3824 507.74 10.37 507.89V507.89C10.3602 508.307 10.481 508.716 10.7153 509.061C10.9497 509.406 11.2859 509.669 11.677 509.813C12.0682 509.957 12.4946 509.976 12.8968 509.866C13.2989 509.756 13.6567 509.523 13.92 509.2V509.2C14.0085 509.079 14.0824 508.948 14.14 508.81C14.5252 507.923 15.2231 507.209 16.1008 506.803C16.9786 506.398 17.9748 506.329 18.9 506.61C19.0425 506.657 19.1903 506.688 19.34 506.7V506.7C19.7568 506.71 20.1662 506.589 20.511 506.355C20.8558 506.12 21.1187 505.784 21.2631 505.393C21.4074 505.002 21.4259 504.575 21.316 504.173C21.206 503.771 20.9732 503.413 20.65 503.15V503.15C20.5292 503.062 20.3982 502.988 20.26 502.93V502.93Z" fill="#4D8AF0"/>
<path id="Star4" opacity="0.5" d="M6.43 244.51C9.98119 244.51 12.86 241.631 12.86 238.08C12.86 234.529 9.98119 231.65 6.43 231.65C2.87881 231.65 0 234.529 0 238.08C0 241.631 2.87881 244.51 6.43 244.51Z" fill="#9D44F5"/>
<path id="Star3" opacity="0.5" d="M530.86 28.95C534.411 28.95 537.29 26.0712 537.29 22.52C537.29 18.9688 534.411 16.09 530.86 16.09C527.309 16.09 524.43 18.9688 524.43 22.52C524.43 26.0712 527.309 28.95 530.86 28.95Z" fill="#4D8AF0"/>
<path id="Star2" opacity="0.5" d="M176.95 12.86C180.501 12.86 183.38 9.98119 183.38 6.43C183.38 2.87881 180.501 0 176.95 0C173.399 0 170.52 2.87881 170.52 6.43C170.52 9.98119 173.399 12.86 176.95 12.86Z" fill="#47E6B1"/>
<path id="Star1" opacity="0.5" d="M653.12 698.16C656.671 698.16 659.55 695.281 659.55 691.73C659.55 688.179 656.671 685.3 653.12 685.3C649.569 685.3 646.69 688.179 646.69 691.73C646.69 695.281 649.569 698.16 653.12 698.16Z" fill="#F55F44"/>
</g>
</g>
<defs>
<linearGradient id="paint0_linear" x1="382.9" y1="692.59" x2="382.9" y2="45.25" gradientUnits="userSpaceOnUse">
<stop stop-color="#808080" stop-opacity="0.25"/>
<stop offset="0.54" stop-color="#808080" stop-opacity="0.12"/>
<stop offset="1" stop-color="#808080" stop-opacity="0.1"/>
</linearGradient>
<linearGradient id="paint1_linear" x1="416347" y1="84730.3" x2="416347" y2="60264.7" gradientUnits="userSpaceOnUse">
<stop stop-color="#808080" stop-opacity="0.25"/>
<stop offset="0.54" stop-color="#808080" stop-opacity="0.12"/>
<stop offset="1" stop-color="#808080" stop-opacity="0.1"/>
</linearGradient>
<linearGradient id="paint2_linear" x1="157721" y1="176866" x2="157721" y2="86072" gradientUnits="userSpaceOnUse">
<stop stop-color="#808080" stop-opacity="0.25"/>
<stop offset="0.54" stop-color="#808080" stop-opacity="0.12"/>
<stop offset="1" stop-color="#808080" stop-opacity="0.1"/>
</linearGradient>
<linearGradient id="paint3_linear" x1="131584" y1="49542" x2="131584" y2="43971.6" gradientUnits="userSpaceOnUse">
<stop stop-color="#808080" stop-opacity="0.25"/>
<stop offset="0.54" stop-color="#808080" stop-opacity="0.12"/>
<stop offset="1" stop-color="#808080" stop-opacity="0.1"/>
</linearGradient>
<clipPath id="clip0">
<rect width="829" height="744.16" fill="white"/>
</clipPath>
</defs>
</svg>
